<svg xmlns="http://www.w3.org/2000/svg" width="44" height="44" viewBox="0 0 44 44">
  <g id="그룹_5" data-name="그룹 5" transform="translate(-3654 -8775)">
    <rect id="사각형_64" data-name="사각형 64" width="44" height="44" transform="translate(3654 8775)" fill="none"/>
    <path id="패스_7" data-name="패스 7" d="M.025,33.106s2.755,4.978,6.089,6.409,10.846.453,8.337-6.409-9.7-15.9-3.345-24.095S29.007-1.028,33.859.478A13.354,13.354,0,0,1,41.054,6.5s-3.346-4.685-8.533-4.35-8.2,2.343-5.019,8.7,8.532,11.711,4.685,18.905-8.868,9.2-8.868,9.2S27.167,34.944,26,30.092,20.7,19.815,20.7,19.815s7.466,16.467-2.739,20.65S-.514,39.8.025,33.106" transform="translate(3655 8776)" fill="#6aae27"/>
  </g>
</svg>
