<?xml version="1.0" encoding="UTF-8"?>
<svg id="Layer_1" xmlns="http://www.w3.org/2000/svg" version="1.1" viewBox="0 0 439.7 125.4">
  <!-- Generator: Adobe Illustrator 29.3.0, SVG Export Plug-In . SVG Version: 2.1.0 Build 146)  -->
  <defs>
    <style>
      .st0 {
        fill: #004096;
      }
    </style>
  </defs>
  <path class="st0" d="M217.9,68.4v11.2h-15c8.8,7.1,14.6,16.3,7.1,26.9-13.6,19.3-70,19.1-80.1-2.9-4.8-10.5,1.3-17.3,8.6-24h-16.5v-11.2h95.9ZM166.1,82.9c-22.8,2-28.9,19.7-4.5,24.3,8.8,1.7,33.5.9,33.9-11.4.4-12-21-13.6-29.4-12.9h0Z"/>
  <path class="st0" d="M396.9,38.4h15v-19.5h17.2v51h-17.2v-20.2h-13.9c-6.2,14.7-20.4,21.4-35.9,20.2-16.8-1.3-34.1-15.6-27-33.7,9.6-24.3,54.5-23.8,61.8,2.2h0ZM362.2,30.4c-2.6.5-6.2,2.7-8,4.7-10.8,12.1,4.4,28.7,18.6,21.7,15.2-7.5,7.4-29.5-10.6-26.4h0Z"/>
  <path class="st0" d="M179.7,20.4h37.4v11.2h-12c.3,2.2,2.2,3.5,3,5.6,4,9.7-3.2,18.1-11.5,22.3-14.7,7.4-40.7,7.2-54.7-1.8-10.1-6.4-13-16.4-5-26.1h-12v-11.2h36.3c2.4-1.3.4-9.8,1.1-10.5l16.5.3.7,10.2h0ZM151.5,37.2c-5.3,5.9-.9,11.6,5.2,14.1,8.2,3.4,25.2,3.3,32.3-2.4,4.6-3.7,4.6-9,0-12.8-7.5-6.1-31-6.4-37.6,1h0Z"/>
  <path class="st0" d="M363.9,75.2c.6.6-1.2,7.8,1.1,9h46.8v-9h17.2v39h-78.2c-.4,0-3.4-2.3-3.4-2.6v-36.4h16.5ZM411.9,95.4h-46.8c-1.7,1.5-1.7,5.2,0,6.8h46.8v-6.8Z"/>
  <path class="st0" d="M77.9,20.4v11.2h-24c-.3,16.5,8.5,29.5,23.2,36.4l-7.5,8.3c-4.9,2-24.8-15.8-25.1-22.1-6.3,10.6-16.9,18.2-28.3,22.4l-8-8.5c15.3-7.2,26.3-18.6,26.9-36.4H10.5v-11.2h67.4Z"/>
  <path class="st0" d="M233.6,31.7v-11.2h49c8.4,0,3.8,18.1,2.6,22.8-5.9,23.3-20.6,47.6-40.8,60.9-1.7-1.6-12.8-6.7-12.4-8.4,16.2-12.2,30-30.9,35.6-50.6.7-2.5,2.7-9.6,2.6-11.7,0-.7-.6-1.8-1.1-1.8h-35.6Z"/>
  <rect class="st0" x="301" y="18.2" width="16.5" height="96"/>
  <path class="st0" d="M38.2,82.7v21h65.1v11.2H23.6c-.2,0-2.6-2.4-2.6-2.6v-29.6h17.2Z"/>
  <rect class="st0" x="86.1" y="18.2" width="17.2" height="67.5"/>
</svg>