<svg width="149" height="50" viewBox="0 0 149 50" fill="none" xmlns="http://www.w3.org/2000/svg">
<g clip-path="url(#clip0_40_1633)">
<path d="M43.5863 38.0186C42.5682 37.6506 42.3753 37.4053 42.3753 36.9832C42.3753 36.5611 42.6682 36.2256 43.3648 36.2256C43.8757 36.2256 44.2151 36.3951 44.5866 36.7054L44.951 36.2544C44.5223 35.9081 44.0865 35.706 43.4006 35.706C42.4503 35.706 41.8073 36.1967 41.8073 37.0193C41.8073 37.7625 42.1788 38.1232 43.2791 38.5201C44.2115 38.8592 44.4937 39.1298 44.4937 39.606C44.4937 40.1508 44.0722 40.4899 43.397 40.4899C42.8719 40.4899 42.4289 40.2446 42.0431 39.873L41.668 40.2987C42.0681 40.71 42.6861 41.0131 43.3791 41.0131C44.4401 41.0131 45.0653 40.3853 45.0653 39.5808C45.0653 38.7762 44.7188 38.4335 43.5899 38.0222L43.5863 38.0186Z" fill="white"/>
<path d="M47.3719 36.994C46.8753 36.994 46.4252 37.1167 46.0894 37.3007L46.2966 37.748C46.6074 37.564 46.936 37.4522 47.3361 37.4522C47.8934 37.4522 48.1649 37.73 48.1649 38.3072V38.7618C47.9399 38.6355 47.5933 38.5381 47.2111 38.5381C46.4573 38.5381 45.75 38.9061 45.75 39.772C45.75 40.7028 46.3752 41.0058 46.9682 41.0058C47.5183 41.0058 47.8934 40.7461 48.1649 40.4539V40.9265H48.7079V38.2351C48.7079 37.3404 48.1935 36.9868 47.3719 36.9868V36.994ZM48.1614 39.9848C47.9291 40.3059 47.5576 40.5621 47.0646 40.5621C46.5966 40.5621 46.2823 40.3132 46.2823 39.7395C46.2823 39.2561 46.6181 38.9819 47.1789 38.9819C47.6434 38.9819 47.9113 39.0685 48.1614 39.2056V39.9885V39.9848Z" fill="white"/>
<path d="M54.1901 38.6716V40.9301H54.7331V38.5814C54.7331 37.4558 54.2473 36.994 53.4685 36.994C52.8469 36.994 52.5361 37.2862 52.3111 37.6542C52.1289 37.2862 51.8038 36.994 51.2644 36.994C50.8142 36.994 50.4927 37.2141 50.2962 37.546V37.077H49.7461V40.9337H50.2962V38.6752C50.2962 37.8202 50.6213 37.4702 51.1465 37.4702C51.6716 37.4702 51.9681 37.7913 51.9681 38.6752V40.9337H52.5147V38.6752C52.5147 37.8202 52.8469 37.4702 53.3649 37.4702C53.9151 37.4702 54.1865 37.7913 54.1865 38.6752L54.1901 38.6716Z" fill="white"/>
<path d="M56.9213 38.6861C56.2747 38.3902 56.0818 38.2639 56.0818 37.9356C56.0818 37.6542 56.3104 37.4594 56.7141 37.4594C57.1177 37.4594 57.3678 37.5676 57.6643 37.8058L57.968 37.3981C57.6786 37.1564 57.2714 36.9904 56.7498 36.9904C56.0532 36.9904 55.5566 37.3873 55.5566 37.9717C55.5566 38.5886 55.8746 38.8231 56.6426 39.1551C57.3178 39.4473 57.5429 39.6241 57.5429 39.9416C57.5429 40.3168 57.2964 40.5368 56.7712 40.5368C56.3926 40.5368 56.0353 40.3817 55.7317 40.1111L55.4102 40.5116C55.7745 40.8074 56.2318 41.0058 56.7569 41.0058C57.4178 41.0058 58.0644 40.6775 58.0644 39.9163C58.0644 39.2272 57.6429 39.0144 56.9177 38.6824L56.9213 38.6861Z" fill="white"/>
<path d="M61.2532 39.3282C61.2532 40.1725 60.8352 40.5296 60.3101 40.5296C59.6956 40.5296 59.4063 40.158 59.4063 39.3282V37.0734H58.8633V39.422C58.8633 40.5296 59.3956 41.0095 60.1993 41.0095C60.6816 41.0095 61.0353 40.7822 61.2532 40.4575V40.9301H61.7998V37.0734H61.2532V39.3282Z" fill="white"/>
<path d="M65.6549 40.9301V38.5814C65.6549 37.4702 65.1226 36.994 64.3153 36.994C63.8366 36.994 63.4793 37.2213 63.265 37.546V37.077H62.7148V40.9337H63.265V38.6752C63.265 37.831 63.6758 37.4702 64.2045 37.4702C64.8154 37.4702 65.1083 37.8454 65.1083 38.6752V40.9337H65.6549V40.9301Z" fill="white"/>
<path d="M67.3754 41.9258L67.5504 42.3443C68.9686 42.301 69.4831 41.7418 69.4831 40.5801V37.0698H68.9365V37.5027C68.6686 37.1924 68.3399 36.9904 67.8612 36.9904C67.061 36.9904 66.418 37.6939 66.418 39.0613C66.418 40.4286 67.0253 41.0058 67.7862 41.0058C68.3042 41.0058 68.6686 40.7461 68.9365 40.4539V40.6523C68.9365 41.5506 68.6471 41.8897 67.3718 41.9222L67.3754 41.9258ZM67.9291 40.5296C67.3253 40.5296 66.961 40.0245 66.961 39.054C66.961 38.0186 67.2718 37.4666 67.9076 37.4666C68.3613 37.4666 68.7293 37.7228 68.9401 38.0439V39.974C68.6721 40.3132 68.3363 40.5296 67.9291 40.5296Z" fill="white"/>
<path d="M75.5048 38.3217C75.5048 36.5575 74.5188 35.7854 73.1827 35.7854H71.8359V40.9301H73.0827C74.4438 40.9301 75.5048 40.1869 75.5048 38.3217ZM72.4039 36.3049H73.1399C74.3116 36.3049 74.9368 37.0265 74.9368 38.3397C74.9368 39.8189 74.2509 40.407 73.1541 40.407H72.4039V36.3049Z" fill="white"/>
<path d="M76.9606 37.5496V37.0734H76.4141V40.9301H76.9606V38.6644C76.9606 37.9284 77.2607 37.4991 77.793 37.4991C78.0466 37.4991 78.211 37.5568 78.3646 37.647L78.5003 37.0914C78.3717 37.0337 78.1895 36.9976 77.9037 36.9976C77.4929 36.9976 77.1321 37.2466 76.9606 37.5532V37.5496Z" fill="white"/>
<path d="M81.766 40.5621L81.5087 40.1652C81.1586 40.3997 80.8979 40.5332 80.4513 40.5332C79.8297 40.5332 79.4403 40.0101 79.3903 39.1911H81.9339C81.9517 39.1009 81.9589 39.0216 81.9589 38.8917C81.9589 37.7913 81.4159 36.9976 80.4192 36.9976C79.5118 36.9976 78.8438 37.7589 78.8438 38.9819C78.8438 40.5008 79.694 41.0131 80.3942 41.0131C80.9693 41.0131 81.3051 40.8579 81.766 40.5657V40.5621ZM80.4192 37.4702C81.0872 37.4702 81.4087 37.9934 81.4516 38.7402H79.3903C79.4546 37.8779 79.8512 37.4702 80.4192 37.4702Z" fill="white"/>
<path d="M83.7797 41.0095C84.3263 41.0095 84.7013 40.7497 84.9693 40.4575V40.9301H85.5158V38.2387C85.5158 37.344 85.0014 36.9904 84.1798 36.9904C83.6832 36.9904 83.2331 37.1131 82.8973 37.2971L83.1009 37.7444C83.4153 37.5604 83.7404 37.4486 84.1405 37.4486C84.7013 37.4486 84.9693 37.7264 84.9693 38.3036V38.7582C84.7442 38.6319 84.4013 38.5345 84.019 38.5345C83.2617 38.5345 82.5508 38.9025 82.5508 39.7684C82.5508 40.6992 83.1795 41.0022 83.7761 41.0022L83.7797 41.0095ZM83.9904 38.9783C84.4549 38.9783 84.7264 39.0649 84.9728 39.202V39.9848C84.7406 40.3059 84.3691 40.5621 83.8761 40.5621C83.4117 40.5621 83.0938 40.3132 83.0938 39.7395C83.0938 39.2561 83.4332 38.9819 83.9904 38.9819V38.9783Z" fill="white"/>
<path d="M90.9961 38.6716V40.9301H91.5427V38.5814C91.5427 37.4558 91.0569 36.994 90.2781 36.994C89.6601 36.994 89.3457 37.2862 89.1242 37.6542C88.942 37.2862 88.6169 36.994 88.0775 36.994C87.6238 36.994 87.3059 37.2141 87.1094 37.546V37.077H86.5664V40.9337H87.1094V38.6752C87.1094 37.8202 87.4381 37.4702 87.9632 37.4702C88.4883 37.4702 88.7884 37.7913 88.7884 38.6752V40.9337H89.3314V38.6752C89.3314 37.8202 89.6636 37.4702 90.1852 37.4702C90.7354 37.4702 91.0069 37.7913 91.0069 38.6752L90.9961 38.6716Z" fill="white"/>
<path d="M43.5863 45.6707C42.5646 45.3027 42.3789 45.061 42.3789 44.6353C42.3789 44.2095 42.6718 43.8812 43.3684 43.8812C43.8793 43.8812 44.2222 44.0472 44.5902 44.3575L44.9545 43.9101C44.5259 43.5674 44.0865 43.3617 43.4041 43.3617C42.4503 43.3617 41.8109 43.8452 41.8109 44.6749C41.8109 45.4181 42.1824 45.7753 43.2827 46.1722C44.2151 46.5149 44.4973 46.7819 44.4973 47.2617C44.4973 47.8029 44.0757 48.142 43.397 48.142C42.8719 48.142 42.4289 47.8967 42.0431 47.5251L41.668 47.9508C42.0681 48.3621 42.6861 48.6615 43.3791 48.6615C44.4401 48.6615 45.0617 48.0374 45.0617 47.2292C45.0617 46.4211 44.7152 46.082 43.5899 45.6707H43.5863Z" fill="white"/>
<path d="M47.3807 45.1223C47.7665 45.1223 48.0201 45.2594 48.2952 45.5119L48.6239 45.1007C48.3238 44.8337 47.9272 44.6425 47.4164 44.6425C46.6162 44.6425 45.7695 45.245 45.7695 46.67C45.7695 48.0157 46.5376 48.6579 47.3771 48.6579C47.913 48.6579 48.2845 48.4523 48.606 48.1204L48.2773 47.7704C48.0166 48.0266 47.7701 48.1781 47.3985 48.1781C46.7234 48.1781 46.3197 47.5684 46.3197 46.6195C46.3197 45.6707 46.7805 45.1151 47.3771 45.1151L47.3807 45.1223Z" fill="white"/>
<path d="M50.9559 44.6461C50.4772 44.6461 50.1164 44.8734 49.8985 45.1981V43.387H49.3555V48.5894H49.8985V46.3309C49.8985 45.4867 50.3164 45.1259 50.8451 45.1259C51.4596 45.1259 51.749 45.4975 51.749 46.3309V48.5894H52.2955V46.2335C52.2955 45.1259 51.7632 44.6461 50.9559 44.6461Z" fill="white"/>
<path d="M54.7308 44.6461C53.802 44.6461 53.0625 45.3496 53.0625 46.6592C53.0625 47.9688 53.7734 48.6651 54.7022 48.6651C55.631 48.6651 56.3777 47.94 56.3777 46.6304C56.3777 45.3207 55.6596 44.6461 54.7308 44.6461ZM54.7201 48.1853C54.0556 48.1853 53.6091 47.6586 53.6091 46.6448C53.6091 45.631 54.0556 45.1259 54.7201 45.1259C55.3845 45.1259 55.8311 45.631 55.8311 46.6448C55.8311 47.6586 55.381 48.1853 54.7201 48.1853Z" fill="white"/>
<path d="M57.7458 43.3834H57.1992V48.5858H57.7458V43.3834Z" fill="white"/>
<path d="M60.2433 44.6461C59.7467 44.6461 59.2966 44.7724 58.9644 44.9563L59.168 45.4073C59.4824 45.2233 59.811 45.1115 60.2111 45.1115C60.7684 45.1115 61.0399 45.3929 61.0399 45.9629V46.4211C60.8149 46.2948 60.4719 46.1974 60.0897 46.1974C59.3323 46.1974 58.625 46.5654 58.625 47.4349C58.625 48.3657 59.2502 48.6651 59.8468 48.6651C60.3933 48.6651 60.7684 48.409 61.0399 48.1167V48.5894H61.5865V45.9016C61.5865 44.9996 61.0685 44.6497 60.2469 44.6497L60.2433 44.6461ZM61.0364 47.6369C60.8077 47.9544 60.429 48.2142 59.9396 48.2142C59.4752 48.2142 59.1609 47.9652 59.1609 47.3916C59.1609 46.9045 59.4967 46.6376 60.0575 46.6376C60.5219 46.6376 60.7899 46.7169 61.0364 46.8576V47.6369Z" fill="white"/>
<path d="M63.1716 45.2053V44.7218H62.625V48.5822H63.1716V46.3165C63.1716 45.5841 63.4645 45.1476 64.0004 45.1476C64.2576 45.1476 64.4219 45.2053 64.5755 45.2955L64.7148 44.7363C64.5827 44.6786 64.404 44.6389 64.1182 44.6389C63.711 44.6389 63.343 44.8878 63.1751 45.2017L63.1716 45.2053Z" fill="white"/>
<path d="M66.8077 46.3417C66.1611 46.0459 65.9646 45.9124 65.9646 45.5913C65.9646 45.3135 66.1968 45.1151 66.5969 45.1151C66.997 45.1151 67.2542 45.2269 67.5507 45.4614L67.8544 45.0574C67.5614 44.8156 67.1577 44.6461 66.6326 44.6461C65.9396 44.6461 65.4359 45.0429 65.4359 45.631C65.4359 46.2191 65.7574 46.4824 66.5219 46.8107C67.197 47.103 67.4221 47.2834 67.4221 47.5972C67.4221 47.976 67.1756 48.1925 66.654 48.1925C66.2718 48.1925 65.9181 48.0374 65.6109 47.7668L65.293 48.1709C65.6574 48.4667 66.1146 48.6615 66.6397 48.6615C67.3006 48.6615 67.9472 48.3296 67.9472 47.5756C67.9472 46.8829 67.5257 46.6736 66.8041 46.3417H66.8077Z" fill="white"/>
<path d="M70.4399 44.6461C69.9541 44.6461 69.6004 44.8734 69.3825 45.1981V43.387H68.8359V48.5894H69.3825V46.3309C69.3825 45.4867 69.7969 45.1259 70.3292 45.1259C70.9401 45.1259 71.2294 45.4975 71.2294 46.3309V48.5894H71.776V46.2335C71.776 45.1259 71.2473 44.6461 70.4399 44.6461Z" fill="white"/>
<path d="M73.3985 44.7218H72.8555V48.5822H73.3985V44.7218Z" fill="white"/>
<path d="M73.1387 43.2499C72.9172 43.2499 72.7422 43.4267 72.7422 43.6503C72.7422 43.874 72.9172 44.04 73.1387 44.04C73.3423 44.04 73.5174 43.8596 73.5174 43.6503C73.5174 43.4267 73.3423 43.2499 73.1387 43.2499Z" fill="white"/>
<path d="M76.1969 44.6461C75.6825 44.6461 75.3181 44.9058 75.0466 45.1981V44.7255H74.5V50.0036H75.0466V48.1528C75.3145 48.4595 75.6432 48.6651 76.1254 48.6651C76.9221 48.6651 77.5651 47.958 77.5651 46.5943C77.5651 45.2305 76.9578 44.6461 76.1969 44.6461ZM76.079 48.1853C75.6289 48.1853 75.2573 47.9291 75.0466 47.6044V45.6779C75.3145 45.3424 75.6503 45.1223 76.0576 45.1223C76.6649 45.1223 77.0292 45.6274 77.0292 46.5979C77.0292 47.6333 76.7149 48.1817 76.0826 48.1817L76.079 48.1853Z" fill="white"/>
<path d="M80.4547 43.9606H82.8768V43.4411H79.8867V48.5858H80.4547V46.1866H81.8515V45.6671H80.4547V43.9606Z" fill="white"/>
<path d="M84.5312 44.6461C83.6024 44.6461 82.8594 45.3496 82.8594 46.6592C82.8594 47.9688 83.5739 48.6651 84.5027 48.6651C85.4315 48.6651 86.1781 47.94 86.1781 46.6304C86.1781 45.3207 85.4672 44.6461 84.5312 44.6461ZM84.5205 48.1853C83.8561 48.1853 83.4167 47.6586 83.4167 46.6448C83.4167 45.631 83.8596 45.1259 84.5205 45.1259C85.1814 45.1259 85.6351 45.631 85.6351 46.6448C85.6351 47.6586 85.185 48.1853 84.5205 48.1853Z" fill="white"/>
<path d="M89.1907 46.9803C89.1907 47.8245 88.7799 48.1853 88.2476 48.1853C87.6367 48.1853 87.3438 47.8137 87.3438 46.9803V44.7218H86.8008V47.0741C86.8008 48.1817 87.3331 48.6615 88.1404 48.6615C88.6155 48.6615 88.9728 48.4378 89.1907 48.1131V48.5858H89.7408V44.7255H89.1907V46.9839V46.9803Z" fill="white"/>
<path d="M92.2567 44.6461C91.778 44.6461 91.4207 44.8734 91.2028 45.1981V44.7255H90.6562V48.5858H91.2028V46.3273C91.2028 45.4831 91.6172 45.1223 92.1495 45.1223C92.7604 45.1223 93.0497 45.4939 93.0497 46.3273V48.5858H93.5963V46.2299C93.5963 45.1223 93.064 44.6425 92.2567 44.6425V44.6461Z" fill="white"/>
<path d="M96.8779 45.162C96.6064 44.8517 96.2813 44.6425 95.799 44.6425C94.9988 44.6425 94.3594 45.346 94.3594 46.7169C94.3594 48.0879 94.9631 48.6615 95.7276 48.6615C96.2456 48.6615 96.6064 48.4054 96.8743 48.1131V48.5858H97.4209V43.3834H96.8743V45.162H96.8779ZM96.8779 47.6297C96.6064 47.9652 96.2742 48.1853 95.8669 48.1853C95.2632 48.1853 94.8988 47.6802 94.8988 46.7097C94.8988 45.6707 95.2096 45.1223 95.8455 45.1223C96.2956 45.1223 96.6635 45.3785 96.8779 45.7032V47.6261V47.6297Z" fill="white"/>
<path d="M99.7387 44.6461C99.2457 44.6461 98.7956 44.7724 98.4598 44.9563L98.6599 45.4073C98.9742 45.2233 99.3029 45.1115 99.703 45.1115C100.26 45.1115 100.528 45.3929 100.528 45.9629V46.4211C100.303 46.2948 99.9602 46.1974 99.5744 46.1974C98.8206 46.1974 98.1133 46.5654 98.1133 47.4349C98.1133 48.3657 98.742 48.6651 99.3386 48.6651C99.8852 48.6651 100.26 48.409 100.528 48.1167V48.5894H101.075V45.9016C101.075 44.9996 100.56 44.6497 99.7351 44.6497L99.7387 44.6461ZM100.532 47.6369C100.3 47.9544 99.9316 48.2142 99.4315 48.2142C98.9706 48.2142 98.6599 47.9652 98.6599 47.3916C98.6599 46.9045 98.9921 46.6376 99.5529 46.6376C100.017 46.6376 100.289 46.7169 100.532 46.8576V47.6369Z" fill="white"/>
<path d="M102.815 43.3834H102.265V44.7218H101.793V45.1873H102.265V47.7885C102.265 48.427 102.522 48.6579 102.997 48.6579C103.283 48.6579 103.486 48.6146 103.697 48.528L103.736 48.0518C103.561 48.124 103.418 48.1601 103.197 48.1601C102.908 48.1601 102.815 48.041 102.815 47.6983V45.1873H103.761V44.7218H102.815V43.3834Z" fill="white"/>
<path d="M105.001 43.2499C104.776 43.2499 104.598 43.4267 104.598 43.6503C104.598 43.874 104.776 44.04 105.001 44.04C105.205 44.04 105.376 43.8596 105.376 43.6503C105.376 43.4267 105.201 43.2499 105.001 43.2499Z" fill="white"/>
<path d="M105.261 44.7218H104.715V48.5822H105.261V44.7218Z" fill="white"/>
<path d="M107.758 44.6461C106.829 44.6461 106.086 45.3496 106.086 46.6592C106.086 47.9688 106.797 48.6651 107.729 48.6651C108.662 48.6651 109.401 47.94 109.401 46.6304C109.401 45.3207 108.687 44.6461 107.758 44.6461ZM107.744 48.1853C107.083 48.1853 106.636 47.6586 106.636 46.6448C106.636 45.631 107.083 45.1259 107.744 45.1259C108.404 45.1259 108.858 45.631 108.858 46.6448C108.858 47.6586 108.408 48.1853 107.744 48.1853Z" fill="white"/>
<path d="M111.791 44.6461C111.313 44.6461 110.956 44.8734 110.734 45.1981V44.7255H110.188V48.5858H110.734V46.3273C110.734 45.4831 111.148 45.1223 111.681 45.1223C112.292 45.1223 112.585 45.4939 112.585 46.3273V48.5858H113.128V46.2299C113.128 45.1223 112.595 44.6425 111.791 44.6425V44.6461Z" fill="white"/>
<path d="M62.6846 25.6584C60.4912 25.662 58.6836 27.3937 58.6836 29.5656C58.6836 31.7375 60.4912 33.4512 62.6846 33.4584C64.8995 33.4512 66.6893 31.7159 66.6893 29.5656C66.6893 27.4154 64.8995 25.662 62.6846 25.6584ZM62.6311 31.6762C61.4843 31.6762 60.6198 30.7309 60.6198 29.5656C60.6198 28.4003 61.5451 27.437 62.6882 27.437C63.8314 27.437 64.7245 28.3823 64.7245 29.5656C64.7245 30.749 63.7885 31.6762 62.6346 31.6762H62.6311Z" fill="white"/>
<path d="M44.3267 22.9706C44.9376 23.5803 45.6378 24.1143 46.3272 24.457L46.3987 24.4967L47.5811 23.0861L47.4668 23.0211C46.3451 22.4078 45.4663 21.6322 44.8911 20.6544C44.3196 19.6912 44.0266 18.5728 44.0266 17.2343V15.9788H41.9118V17.1008C41.9118 18.5511 41.5867 19.6912 40.9758 20.6905C40.2935 21.7981 39.2825 22.6892 37.9893 23.5154L37.875 23.5876L39.1575 24.9296L39.2289 24.89C39.9934 24.4715 40.8043 23.8257 41.5081 23.1041C42.119 22.4728 42.6477 21.7981 42.9692 21.1595C43.28 21.7873 43.7551 22.4259 44.3267 22.9742V22.9706Z" fill="white"/>
<path d="M42.0352 32.5348H50.8875V26.4269H42.0352V32.5348ZM44.025 28.1514H48.8977V30.8103H44.025V28.1514Z" fill="white"/>
<path d="M71.5508 32.5348H81.5606V26.4269H71.5508V32.5348ZM73.5192 28.1514H79.5958V30.8103H73.5192V28.1514Z" fill="white"/>
<path d="M50.9254 15.618H48.957V25.727H50.9254V21.2533H53.2296V19.4567H50.9254V15.618Z" fill="white"/>
<path d="M91.7372 23.4865C92.3838 24.053 93.1232 24.5292 93.8198 24.8358L93.8913 24.8683L94.9559 23.4144L94.8416 23.3567C93.827 22.8335 92.9232 22.1841 92.273 21.3904C91.6121 20.5823 91.2192 19.6082 91.2192 18.4357V18.0929H94.1485V16.354H86.1964V18.0929H89.1222V18.5114C89.1222 19.5793 88.7721 20.5751 88.1898 21.4373C87.5075 22.4728 86.5108 23.3062 85.5427 23.8473L85.4141 23.9159L86.7216 25.2832L86.793 25.2471C87.4968 24.8431 88.2755 24.2334 88.94 23.5479C89.4723 22.9851 89.951 22.3898 90.2439 21.7945C90.5976 22.3717 91.1406 22.949 91.7407 23.4865H91.7372Z" fill="white"/>
<path d="M105.973 28.1911H113.128V32.5312H115.114V26.4666H105.973V28.1911Z" fill="white"/>
<path d="M110.907 21.2389C110.907 20.2828 110.482 19.4026 109.853 18.7315H111.818V17.0106H108.067V15.1165H105.934V17.0106H102.094V18.7315H104.101C103.487 19.4026 103.062 20.2756 103.062 21.2389C103.062 23.3711 104.802 25.1028 106.977 25.11C109.153 25.1028 110.903 23.3711 110.907 21.2389ZM104.959 21.1595C104.959 19.9798 105.945 18.9804 106.977 18.9804C108.01 18.9804 108.992 19.9834 108.996 21.1595C108.996 22.3212 108.01 23.3242 106.977 23.3278C105.941 23.3242 104.962 22.3212 104.959 21.1595Z" fill="white"/>
<path d="M115.113 15.618H113.148V25.763H115.113V21.8919H117.425V20.0952H115.113V15.618Z" fill="white"/>
<path d="M98.4414 15.618H96.4766V25.763H98.4414V21.2533H100.749V19.4567H98.4414V15.618Z" fill="white"/>
<path d="M65.0898 18.6269H61.9961V20.4055H65.0898V26.0841H67.0581V15.618H65.0898V18.6269Z" fill="white"/>
<path d="M60.0904 23.234C60.7049 23.8401 61.4229 24.3741 62.1088 24.7348L62.1838 24.7781L63.3663 23.3675L63.252 23.3025C62.1302 22.7073 61.2693 21.9352 60.6906 20.9719C60.1047 20.0159 59.8118 18.8542 59.8118 17.5157V15.9788H57.6934V17.3858C57.6934 18.8361 57.3718 19.9726 56.7753 20.9539C56.0965 22.0795 55.0641 22.9778 53.7709 23.7968L53.6602 23.869L54.9498 25.2147L55.0141 25.1714C55.775 24.7493 56.5681 24.1395 57.2718 23.4433C57.9077 22.8047 58.4364 22.1084 58.7579 21.4409C59.0616 22.0507 59.526 22.6712 60.0904 23.2376V23.234Z" fill="white"/>
<path d="M94.2234 25.6584C92.0299 25.662 90.2223 27.3937 90.2188 29.5656C90.2223 31.7159 92.0264 33.4512 94.2234 33.4584C96.4347 33.4512 98.228 31.7159 98.228 29.5656C98.228 27.4154 96.4347 25.662 94.2234 25.6584ZM94.1662 31.6762C93.0231 31.6762 92.1514 30.7309 92.1514 29.5656C92.1514 28.4003 93.0731 27.437 94.2234 27.437C95.3737 27.437 96.2561 28.3823 96.2596 29.5656C96.2596 30.7273 95.3201 31.6762 94.1662 31.6762Z" fill="white"/>
<path d="M73.9492 21.4157H75.9176V16.253H70.6055V17.9703H73.9492V21.4157Z" fill="white"/>
<path d="M79.8558 21.4157H81.8277V16.253H76.5156V17.9703H79.8558V21.4157Z" fill="white"/>
<path d="M130.031 20.189H128.377V15.8994H126.516V32.0983H128.377V22.1372H130.031V32.5312H131.96V15.618H130.031V20.189Z" fill="white"/>
<path d="M123.788 22.4295C123.345 21.4518 123.163 20.3586 123.163 19.0165V18.378H125.396V16.556H118.908V18.378H121.212V19.0526C121.212 20.3225 121.048 21.3616 120.652 22.3248C120.191 23.4324 119.416 24.4282 118.179 25.4961L118.094 25.5754L119.315 26.7985L119.391 26.7408C120.005 26.2826 120.648 25.6187 121.184 24.9333C121.638 24.356 122.02 23.7571 122.259 23.2304C122.506 23.7427 122.891 24.3308 123.342 24.8791C123.863 25.5213 124.453 26.131 125.017 26.4954L125.092 26.5459L126.121 25.3049L126.039 25.2291C124.931 24.255 124.245 23.3855 123.795 22.4259L123.788 22.4295Z" fill="white"/>
<path d="M68.957 23.8185H75.4909V25.745H77.6236V23.8185H84.2611V22.0903H68.957V23.8185Z" fill="white"/>
<path d="M143.169 23.2665H136.517V18.1543H141.582V16.354H134.523V25.0126H143.169V23.2665Z" fill="white"/>
<path d="M139.404 27.1412H137.414V32.5312H146.72V30.7562H139.404V27.1412Z" fill="white"/>
<path d="M146.676 20.3009V15.6144H144.711V28.0937H146.676V22.0976H149.001V20.3009H146.676Z" fill="white"/>
<path d="M41.728 10.3976L36.6302 8.26539L41.728 6.1332L40.8206 3.92886L35.7264 6.06104L37.8377 0.912764L35.6514 0L33.5437 5.14828L31.4324 0L29.2461 0.912764L31.3574 6.06104L26.2632 3.92886L25.3594 6.1332L30.4536 8.26539L25.3594 10.3976L26.2632 12.6019L31.3574 10.4697L29.2461 15.618L31.4324 16.5308L33.5437 11.3861L35.6514 16.5308L37.8377 15.6144L35.7264 10.4697L40.8206 12.6019L41.728 10.3976Z" fill="#009FE3"/>
<path d="M8.74513 24.7601H12.1353V15.618H0.542969V18.699H8.74513V24.7601Z" fill="#009FE3"/>
<path d="M21.9717 24.7601H25.3619V15.618H13.7695V18.699H21.9717V24.7601Z" fill="#009FE3"/>
<path d="M0 29.4899H21.9701V34.198H25.3603V26.4088H0V29.4899Z" fill="#009FE3"/>
<path d="M8.20312 48.5858H25.3612V35.7818H8.20312V48.5858ZM11.5897 38.8664H21.971V45.5083H11.5897V38.8664Z" fill="#009FE3"/>
</g>
<defs>
<clipPath id="clip0_40_1633">
<rect width="149" height="50" fill="white"/>
</clipPath>
</defs>
</svg>
