<svg width="107" height="36" viewBox="0 0 107 36" fill="none" xmlns="http://www.w3.org/2000/svg">
<path d="M85.1865 8.66857C85.1865 8.97013 85.2304 9.28266 85.351 9.57874C85.8829 10.8947 87.2374 11.7061 88.9592 11.0208C89.3704 10.8563 100.76 6.26703 100.76 6.26703C100.76 6.26703 96.2742 17.6387 96.1042 18.0609C95.4517 19.6893 96.2358 21.1642 97.5683 21.6577C97.8644 21.7674 98.1715 21.8222 98.4731 21.8167C99.5643 21.8112 100.524 21.1697 100.996 19.8867C101.067 19.6948 106.676 4.29316 106.797 3.9258C106.868 3.70649 107 3.19109 107 2.83469C107 2.07256 106.72 1.35429 106.177 0.811479C105.646 0.274148 104.933 0 104.181 0C103.814 0 103.518 0.0657956 103.068 0.208353C102.8 0.29608 88.3395 5.67487 87.1058 6.13544C85.872 6.59601 85.1865 7.58294 85.192 8.66857" fill="white"/>
<path d="M58.0924 17.3544V17.0254H49.3242V19.2679H54.4184C53.0914 23.4679 48.3481 25.9352 48.3481 25.9352L49.6148 27.7062C49.6148 27.7062 58.0924 24.2081 58.0924 17.3489V17.3544Z" fill="white"/>
<path d="M55.3233 32.2457V27.8867H52.2141V32.7995C52.2141 34.3347 53.4369 35.4422 55.1149 35.4422H64.7494V33.2052H56.409C55.6523 33.2052 55.3342 32.9036 55.3178 32.2457H55.3233Z" fill="white"/>
<path d="M57.7415 21.159V23.4015H61.4428V28.8077H64.552V16.7891H61.4428V21.159H57.7415Z" fill="white"/>
<path d="M84.534 25.797H87.6431V16.6953H84.534V19.53H81.2932V21.7451H84.534V25.797Z" fill="white"/>
<path d="M14.7946 27.7168H2.96118V32.7995C2.96118 34.3347 4.18401 35.4423 5.86196 35.4423H15.4855V28.4077C15.4855 28.0238 15.173 27.7168 14.7946 27.7168ZM12.3764 33.2052H7.15608C6.39935 33.2052 6.07582 32.9092 6.06486 32.2457V29.9648H12.3764V33.2052Z" fill="white"/>
<path d="M15.6938 17.0573V16.9531H2.79111V19.1957H12.4421C12.4421 19.3437 12.4421 19.5301 12.4421 19.7111C12.4421 21.7946 12.3379 23.1653 12.2831 23.7246H0V25.9671H18.9236V23.7246H15.0523C15.2387 23.0228 15.6993 20.8515 15.6993 17.0573H15.6938Z" fill="white"/>
<path d="M35.0179 28.845C37.6006 28.2803 39.5089 26.3448 39.5089 24.0529C39.5089 22.8192 38.955 21.6897 38.0448 20.8179H41.3459V18.5754H35.0179V16.459H31.9142V18.5754H25.5862V20.8179H28.8873C27.977 21.6897 27.4232 22.8137 27.4232 24.0529C27.4232 26.3503 29.3315 28.2803 31.9197 28.845V31.115H24.0125V33.3575H42.9306V31.115H35.0234V28.845H35.0179ZM30.6146 23.9816C30.6146 22.4519 31.8923 21.2017 33.4606 21.2017C35.0288 21.2017 36.3065 22.4464 36.3065 23.9816C36.3065 25.5168 35.0288 26.7615 33.4606 26.7615C31.8923 26.7615 30.6146 25.5168 30.6146 23.9816Z" fill="white"/>
<path d="M78.5898 25.6049H81.6003C81.4742 24.8756 80.372 18.9869 77.5041 16.9473H74.033L71.3625 25.6761H74.4827L76.2593 19.3927C77.7563 21.1472 78.4856 25.0292 78.5843 25.6049H78.5898Z" fill="white"/>
<path d="M79.2094 33.2819C78.4198 33.2819 78.2772 33.0791 78.2772 32.4101V32.1305H87.6486V27.4152C87.6486 27.0094 87.3525 26.6914 86.9302 26.6914H75.2229V28.8517H84.671V30.0086H75.3052V32.7994C75.3052 34.4169 76.4677 35.4422 78.2059 35.4422H87.8515V33.2819H79.2094Z" fill="white"/>
</svg>
