<svg width="122" height="122" viewBox="0 0 122 122" fill="none" xmlns="http://www.w3.org/2000/svg">
<path d="M120.71 55.71V1.64001C120.71 1.64001 93.3299 -2.37999 61.3599 9.73001C81.1899 17.24 102.79 30.96 120.71 55.71Z" fill="#F56765"/>
<path d="M2 1.64001V55.71C19.92 30.96 41.52 17.25 61.35 9.73001C29.38 -2.37999 2 1.64001 2 1.64001Z" fill="#04B0D6"/>
<path d="M2 55.7105L2.66 64.7205C6.94 94.1405 31.59 120.65 61.35 120.65C92.97 120.65 118.8 95.9305 120.6 64.7605H120.71V55.7105C102.79 30.9605 81.19 17.2505 61.36 9.73047C41.52 17.2505 19.92 30.9605 2 55.7105Z" fill="#243456"/>
</svg>
