<svg width="164" height="26" viewBox="0 0 164 26" fill="none" xmlns="http://www.w3.org/2000/svg">
<g clip-path="url(#clip0_11_312)">
<path d="M163.86 13.191L159.051 13.1324V16.4011C159.051 20.6118 158.318 23.7033 157.966 24.6153C157.733 24.8811 157.205 25.0283 156.882 24.9397C156.677 24.2036 156.267 21.9068 156.267 18.1078V3.38617C156.267 2.76864 154.536 1.50232 153.891 1.29647C153.715 1.23654 154.272 0.589053 154.448 0.589053C155.767 0.589053 159.226 1.38376 159.139 2.00259C159.079 2.41428 159.051 2.91586 159.051 3.4461V11.8661L162.686 10.4226C163.009 10.304 164.446 13.1897 163.86 13.1897M153.891 14.7818C154.391 15.4892 153.04 18.4908 152.542 17.786C151.837 16.7842 149.904 13.8398 148.173 11.8674C145.856 15.1062 142.982 17.7261 140.403 19.111C140.08 19.0823 139.698 18.6094 139.698 18.3163C142.895 15.4592 146.502 10.4539 148.027 5.89015C148.115 5.62568 147.03 4.82967 146.56 4.53654C146.414 4.44795 147.06 3.94637 147.235 3.94637C148.115 3.94637 150.519 4.94822 151.105 5.35991C151.428 5.59702 151.457 5.74293 151.31 6.12465C150.666 7.80396 149.816 9.39338 148.848 10.8668C151.017 12.3677 153.421 14.1043 153.892 14.7818M138.349 13.4568L133.511 13.3682V16.4011C133.511 20.6118 132.836 23.7033 132.455 24.6153C132.221 24.8811 131.693 25.0283 131.399 24.9397C131.165 24.2036 130.784 21.9068 130.784 18.1078V3.38617C130.784 2.76864 129.053 1.56094 128.408 1.29647C128.261 1.23654 128.789 0.589053 128.965 0.589053C130.284 0.589053 133.656 1.38376 133.596 2.00259C133.568 2.41428 133.51 2.91586 133.51 3.4461V12.1306L137.175 10.7183C137.526 10.5711 138.964 13.4568 138.349 13.4568ZM122.632 14.899C123.98 14.899 124.978 13.9558 124.978 12.5136C124.978 11.0714 124.04 10.0982 122.632 10.0982C121.224 10.0982 120.286 11.0714 120.286 12.5136C120.286 13.9558 121.224 14.899 122.632 14.899ZM118.057 2.62012C118.026 2.50287 118.174 2.08988 118.349 2.11854C119.316 2.29572 120.285 2.4716 121.516 2.62012L124.507 2.94452C124.771 2.97318 125.914 4.5639 125.153 4.5639H120.636C119.875 4.5639 118.114 2.88589 118.056 2.62012M115.065 6.21324C115.037 6.12465 115.212 5.80156 115.299 5.83022C115.798 6.0074 117.586 6.06473 119.287 6.03606L125.386 5.97744C127.146 5.94878 127.674 5.06417 127.937 5.06417C128.23 5.06417 129.345 6.62363 129.345 7.33105C129.345 7.4496 129.227 7.53689 129.022 7.53689C128.728 7.53689 127.028 7.4496 125.68 7.4496L119.111 7.47826C118.056 7.47826 117.353 7.71277 117.029 8.0085C116.208 7.774 115.182 6.53634 115.065 6.21194M129.641 18.255C127 19.4627 121.957 20.1702 118.497 20.6105C117.559 20.7291 117.002 20.9049 116.444 21.2293C115.565 20.9922 114.275 19.6972 114.157 19.197C114.186 19.051 114.304 18.9038 114.391 18.8139C115.36 18.8139 116.766 18.8426 118.467 18.7553C119.523 18.6967 120.52 18.6368 121.428 18.5495L121.251 16.0168C119.024 15.6338 117.644 14.3075 117.644 12.4823C117.644 10.4812 119.375 9.12631 122.102 8.97909C122.131 8.86184 122.161 8.77325 122.161 8.65469C122.161 8.42019 122.102 8.15572 121.779 7.91861C121.779 7.35971 123.539 7.91861 123.539 8.21304C123.539 8.3316 123.392 8.68336 123.305 8.97779C125.973 9.15497 127.645 10.5099 127.645 12.481C127.645 14.3062 126.208 15.6325 124.007 16.0155L123.89 18.3124C126.676 17.988 128.553 17.545 129.813 17.1333C130.078 17.046 129.96 18.1039 129.639 18.2524M96.2977 3.91641L96.2692 8.83318H103.102L103.278 3.91641H96.2977ZM91.8709 2.82596C91.8423 2.67875 92.2523 2.17847 92.4573 2.17847C92.9568 2.17847 94.7149 2.2371 95.8592 2.44294H102.368C103.188 2.44294 103.63 2.32438 103.951 2.03125C104.303 1.9127 106.592 2.26576 106.533 2.64878L105.564 8.56741C105.975 8.95043 106.533 9.71517 106.533 10.1282C106.533 10.2454 106.415 10.334 106.21 10.334C105.917 10.334 104.831 10.3027 103.19 10.3027H95.976C95.7995 10.6271 95.566 10.9216 95.3026 11.2173C95.0379 11.4818 94.5683 11.6003 94.2179 11.5104C93.9247 10.803 93.6899 9.4494 93.4836 7.00535L93.2202 3.94246C93.1917 3.64933 92.3691 3.00054 91.8722 2.82336M108.115 23.732C108.115 23.8506 108.028 23.9392 107.793 23.9392H104.773L95.7995 23.9678C93.3084 23.9678 92.8089 23.1132 92.8089 21.4352V18.9325C92.8089 18.4895 91.8709 17.7248 91.3428 17.6375C91.1664 17.6088 91.7528 16.8728 91.9877 16.8728C93.0139 16.8728 94.5384 17.1073 95.3026 17.4017C95.4479 17.4616 95.6841 17.5489 95.6244 17.8733C95.566 18.2563 95.566 18.8152 95.566 19.2868V21.4651C95.566 22.3784 95.889 22.4956 96.6805 22.4956L104.217 22.467C105.801 22.467 106.33 21.5837 106.535 21.5837C106.945 21.5837 108.117 23.0559 108.117 23.732M110.96 14.1929C110.96 14.3401 110.843 14.4274 110.637 14.4274H101.342V16.1367C101.342 17.8733 100.696 19.3741 100.258 20.0516C100.024 20.3174 99.5245 20.4346 99.2014 20.346C98.938 19.5513 98.5566 18.4895 98.5566 16.5471V14.4261H92.3094C91.2533 14.4261 90.5501 14.7205 90.2283 15.015C89.4071 14.7805 87.736 13.4842 87.736 13.1897C87.736 13.0725 87.8826 12.7481 87.9695 12.7781C88.469 12.9552 90.2569 12.9839 91.9578 12.9839L106.327 12.9552C108.145 12.9552 108.76 11.9247 108.994 11.9247C109.318 11.9247 110.959 13.4855 110.959 14.1929M70.0246 6.74348C70.0246 8.62733 71.2546 9.89366 73.1035 9.89366C74.9523 9.89366 76.3587 8.62733 76.3587 6.74348C76.3587 4.85963 75.0379 3.59201 73.1333 3.59201C71.2287 3.59201 70.0259 4.85963 70.0259 6.74348M67.2377 6.83077C67.2377 4.18218 69.35 2.41428 72.6039 2.2384C72.6325 2.15111 72.6623 2.06122 72.6623 1.97263C72.6623 1.70816 72.6039 1.41503 72.2225 1.14926C72.2225 0.560391 74.1868 1.14926 74.1868 1.47365C74.1868 1.59091 74.0402 1.94397 73.9507 2.2384C77.0606 2.4729 79.1119 4.2408 79.1119 6.83077C79.1119 9.56926 76.7363 11.3658 73.1878 11.3658C69.6393 11.3658 67.2351 9.56926 67.2351 6.83077M84.7739 14.8704C84.7739 14.9876 84.6571 15.0762 84.4521 15.0762H78.0882V16.4897C78.0882 20.4633 77.3837 23.5548 77.0036 24.4681C76.77 24.7339 76.242 24.8511 75.9487 24.7925C75.7126 24.0564 75.3026 21.7609 75.3026 18.1977V15.0775L70.8161 15.1062V15.9895C70.8161 19.9356 70.1116 23.0259 69.76 23.9405C69.5264 24.2049 68.9984 24.3235 68.6753 24.2636C68.4703 23.5275 68.0603 21.2319 68.0603 17.6974V15.1062H66.1245C65.0684 15.1062 64.3652 15.4006 64.0434 15.695C63.2222 15.4605 61.5511 14.1642 61.5511 13.8398C61.5511 13.7513 61.6977 13.4282 61.7846 13.4568C62.2841 13.634 64.072 13.6627 65.7729 13.6627L80.1421 13.604C81.9598 13.604 82.5748 12.5735 82.8109 12.5735C83.1327 12.5735 84.7739 14.1642 84.7739 14.8704ZM44.0733 5.56445C44.0733 7.18383 45.276 8.3329 47.0937 8.3329C48.9114 8.3329 50.1142 7.18383 50.1142 5.56445C50.1142 3.94507 48.9114 2.85593 47.0937 2.85593C45.276 2.85593 44.0733 3.97634 44.0733 5.56445ZM41.2877 5.683C41.2877 3.3562 43.3104 1.67819 46.4476 1.47235C46.4761 1.32514 46.5358 1.20658 46.5358 1.06067C46.5358 0.794895 46.4476 0.530427 46.0947 0.264655C46.0947 -0.352872 48.059 0.264655 48.059 0.559088C48.059 0.736269 47.854 1.14795 47.736 1.47235C50.8459 1.67819 52.927 3.3562 52.927 5.683C52.927 8.12576 50.5514 9.86369 47.0924 9.86369C43.6335 9.86369 41.2864 8.12576 41.2864 5.683M55.1871 24.2036C55.1871 24.3508 55.0691 24.4095 54.8641 24.4095H43.457C41.4927 24.4095 40.8167 23.732 40.7596 22.2012L40.7013 20.2288C40.7013 19.9356 39.9371 19.5526 39.4389 19.3455C39.4103 19.1983 39.8501 18.698 40.085 18.698C40.6416 18.698 42.7253 18.8152 43.4869 19.081H50.9056L50.9341 16.6956H43.5154C42.6059 16.6956 42.0207 16.9301 41.6977 17.2258C40.6416 17.0786 39.7905 15.6937 39.7619 15.4879C39.7334 15.3407 39.88 15.0462 40.0266 15.0762C40.9646 15.2534 42.1362 15.2534 43.8385 15.2534H49.9079C50.7291 15.2534 51.169 15.1648 51.492 14.8404C51.8436 14.8117 54.1894 15.0775 54.1025 15.4592L53.3694 18.9338C53.926 19.3455 54.2789 20.0529 54.2789 20.2288C54.2789 20.376 54.1907 20.4945 54.0428 20.4945C53.7794 20.4945 52.1083 20.4633 50.759 20.4633H43.4869V21.7596C43.4869 22.7601 43.7801 22.966 45.0996 22.966H51.5206C53.3383 22.966 53.603 22.2012 53.808 22.2012C54.218 22.2012 55.1871 23.5861 55.1871 24.2036ZM58.5293 12.808C58.5293 12.9266 58.4113 13.0139 58.2063 13.0139H54.0713L39.9085 13.0451C38.8822 13.0451 38.179 13.3383 37.856 13.604C37.0049 13.3669 35.4804 12.1006 35.3636 11.7788C35.3351 11.6902 35.5102 11.3658 35.5971 11.3945C36.0966 11.5717 37.8845 11.6016 39.5855 11.6016L53.926 11.5417C55.7152 11.5417 56.3302 10.5125 56.5936 10.5125C56.9166 10.5125 58.5293 12.1019 58.5293 12.808ZM26.157 12.7494C26.157 13.0139 25.952 13.0139 25.2475 13.2197C24.9543 13.3083 24.8076 13.7812 24.5728 14.516C24.0733 16.0754 22.4632 18.5794 19.1184 18.5794C15.7736 18.5794 14.0169 15.7224 13.8988 15.5752C13.7223 15.3407 13.459 15.1335 13.2241 15.1335C13.0788 15.1335 12.9607 15.1921 12.8738 15.2521C11.6711 16.0754 10.3516 17.0174 10.3516 19.167C10.3516 20.5805 11.5232 22.1999 13.5173 22.1999C15.217 22.1999 16.3328 20.5805 16.6844 19.4614C16.8012 19.0784 16.7713 18.9312 16.9763 18.9312C17.241 18.9312 17.3279 19.5201 17.6808 19.5201C17.974 19.5201 17.8858 19.3728 18.2673 19.3728C18.6189 19.3728 18.7084 19.8445 19.0003 19.8445C19.4116 19.8445 19.9695 19.4914 20.2316 19.4914C20.3198 19.4914 20.4677 19.4914 20.4677 19.5787C20.4677 19.7259 20.203 19.8731 19.9682 20.0803C19.4687 20.5232 19.0885 20.7877 18.7071 21.4352C17.3578 23.7307 15.8047 24.1437 15.012 24.3795C14.7201 24.4668 14.4256 24.614 14.3075 24.8811C13.8677 25.8816 13.6056 26.0002 13.4875 26.0002C13.3409 26.0002 13.2825 25.823 13.254 25.4413C13.2228 25.0296 12.9893 24.558 12.1979 24.4108C10.1751 24.0277 7.68147 21.968 7.68147 18.728C7.68147 15.8136 9.88063 14.6645 10.9951 13.5454C11.1417 13.3982 11.2598 13.221 11.2598 12.9565V12.868C11.2598 12.722 11.2287 12.5449 11.0535 12.3104C9.93901 10.8968 9.09049 9.95359 7.5647 9.95359C5.8936 9.95359 4.4275 11.3385 4.4275 13.3409C4.4275 15.4905 5.48361 16.2266 6.53973 16.4923C6.89003 16.5796 7.0081 16.6096 7.0081 16.7268C7.0081 16.9614 6.77456 16.904 6.77456 17.2571C6.77456 17.5216 6.97956 17.4916 6.97956 17.9046C6.97956 18.199 6.71488 18.2876 6.71488 18.7293C6.71488 19.0823 6.89133 19.1996 6.89133 19.4067C6.89133 19.6712 7.03794 19.6412 7.03794 20.2014C7.03794 20.3486 7.09633 20.4659 6.97956 20.4659C6.86279 20.4659 6.71488 20.26 6.53973 19.9956C6.12844 19.3767 5.68861 18.9937 5.36555 18.7592C2.81478 16.904 2.72526 16.0794 2.08173 14.813C1.93512 14.5199 1.87674 14.0183 1.58222 13.8711C0.644171 13.3995 -0.00195312 13.2536 -0.00195312 12.4862C-0.00195312 12.1332 0.409335 12.4862 1.05416 12.4862C1.40577 12.4862 1.81576 12.5462 2.02335 11.8101C2.46318 10.2493 4.30943 7.74534 7.53486 7.74534C10.9653 7.74534 12.6662 10.6024 12.7843 10.7496C13.0178 11.074 13.2241 11.1912 13.459 11.1912C13.6056 11.1912 13.7223 11.1912 13.987 10.9567C16.1563 9.01296 16.3328 8.15963 16.3328 7.04183C16.3328 5.62829 15.217 3.97894 13.2228 3.97894C11.2287 3.97894 10.2906 5.56836 10.0272 6.74609C9.93901 7.12911 9.88063 7.33496 9.70418 7.33496C9.4408 7.33496 9.4408 6.9819 9.14758 6.9819C8.6779 6.9819 8.61952 7.18774 8.38598 7.18774C8.06292 7.18774 8.06292 6.59887 7.59325 6.59887C7.47648 6.59887 7.2118 6.74609 7.03664 6.74609C6.59681 6.74609 6.56827 6.83338 6.36198 6.83338C6.12844 6.83338 5.8936 6.71613 5.8936 6.54025C5.8936 6.36437 6.04021 6.24581 6.50859 6.01001C7.12487 5.68561 7.68277 5.45111 7.97469 4.80231C8.8842 2.77124 10.8771 2.12245 11.6413 1.82932C11.9332 1.71076 12.0811 1.59221 12.2277 1.32774C12.8427 0.208635 13.1074 0.0913829 13.2838 0.0913829C13.4603 0.0913829 13.4304 0.385816 13.5173 0.740178C13.6056 1.15186 13.6056 1.47626 14.2789 1.65344C16.1862 2.15502 19.0003 3.92031 19.0003 7.15908C19.0003 10.3978 15.8346 12.4302 15.6867 12.5475C15.3351 12.8119 15.217 13.0178 15.217 13.2236C15.217 13.3708 15.3052 13.548 15.3934 13.7252C16.1576 15.2573 17.4758 16.2578 19.0003 16.2578C20.818 16.2578 22.2257 14.5512 22.2257 12.7833C22.2257 11.0154 21.0542 9.95619 20.0266 9.6331C19.6451 9.51454 19.47 9.51454 19.47 9.3087C19.47 9.07419 19.7334 9.16148 19.7334 8.80712C19.7334 8.54265 19.6166 8.60128 19.6166 8.18959C19.6166 7.89516 19.9682 7.80657 19.9682 7.36492C19.9682 7.01186 19.7918 6.89461 19.7918 6.68877C19.7918 6.423 19.7035 6.45166 19.7035 5.89276C19.7035 5.74554 19.6451 5.62829 19.7632 5.62829C19.9085 5.62829 20.0551 5.83413 20.2316 6.0986C20.6416 6.71743 20.9646 7.18774 21.2877 7.39358C23.6049 8.86705 24.1031 9.80898 24.6312 11.1339C24.748 11.4284 24.8647 11.9286 25.2176 12.1345C25.5096 12.313 26.1557 12.5188 26.1557 12.7533" fill="white"/>
</g>
<defs>
<clipPath id="clip0_11_312">
<rect width="164" height="26" fill="white"/>
</clipPath>
</defs>
</svg>
