<svg width="34" height="34" viewBox="0 0 34 34" fill="none" xmlns="http://www.w3.org/2000/svg">
<path d="M30.8171 27.2282C30.7905 27.2193 30.7596 27.2148 30.7287 27.2104C28.02 24.4251 26.7828 17.6747 27.5163 13.6209C29.9775 13.4302 31.7096 11.9755 32.3592 9.49621C32.6464 8.40071 32.1382 7.55359 31.0866 7.354C30.5696 7.25643 30.2294 6.9504 30.0394 6.41818C30.0349 6.40044 30.0261 6.38269 30.0173 6.36939C29.0231 4.16066 27.3042 3.88567 26.1642 3.78366V3.77036C25.7532 3.79254 25.2407 3.79254 25.5146 3.48651C26.2437 2.67486 26.3718 2.29344 26.4558 2.00071C26.6414 1.34874 25.9521 0.922958 25.4395 1.01166C22.6071 1.48179 19.8322 4.01873 18.3652 7.46045C18.1751 7.9084 17.8482 8.68013 17.4416 9.67362C16.9247 8.42732 15.8686 5.41582 12.8285 3.83245C11.4897 3.13612 10.1729 2.91436 8.79866 3.00307C7.6498 3.07403 5.2637 3.22039 3.97786 6.11215C3.93809 6.15206 3.62436 6.41818 2.27224 6.56454C1.44153 6.65324 0.672672 6.64881 0.663834 6.64437H0.654997C0.301501 6.63994 0.00544768 6.93266 0.00102897 7.29191C-0.0475767 11.0441 1.63595 12.6762 2.8997 13.3726C2.8997 13.3726 2.8997 13.3726 2.90412 13.3726C3.66413 13.8338 4.62741 13.9403 5.51557 13.9403C5.99721 13.9403 6.43908 13.9092 6.76606 13.8738C7.01351 15.4394 7.47305 21.7817 4.34461 27.2237C2.33852 27.3745 1.20733 28.7139 1.20733 30.182C1.20733 30.7009 1.35315 31.2198 1.64037 31.6678C1.64037 31.6678 2.35178 32.9895 4.51694 32.9895H11.5913C11.9536 32.9895 12.2497 32.6923 12.2497 32.3286C12.2497 31.965 11.9536 31.6678 11.5913 31.6678H4.30484C3.07645 31.6678 2.52853 30.9227 2.52853 30.182C2.52853 29.2417 3.34599 28.5765 4.60974 28.5365C5.18859 28.6652 5.88674 28.9934 6.17396 29.8183C6.29326 30.1643 6.66885 30.3417 7.01351 30.2219C7.35817 30.1022 7.53492 29.7252 7.41561 29.3792C7.11956 28.5321 6.52303 27.889 5.69674 27.512C8.62634 22.141 8.4054 15.945 8.08725 13.825C8.02981 13.4347 7.87516 12.9424 7.84422 12.8758C7.72492 12.6053 7.4377 12.4456 7.13723 12.4944C6.5628 12.5875 5.00742 12.7516 3.92926 12.388C3.89832 12.3791 3.86739 12.3658 3.83646 12.3569C2.65667 11.8424 1.87456 10.8268 1.52548 9.38089C1.9541 9.28332 2.57271 8.93294 2.97482 7.79309C4.21647 7.5935 4.92346 7.22982 5.17533 6.65324C5.78069 5.27833 6.64676 4.71949 7.60561 4.47999C8.10051 4.35581 9.3731 4.18283 10.4601 4.91021C10.765 5.11423 11.008 5.44687 11.1538 5.87265C11.3969 6.58228 11.2201 7.38062 10.6545 8.11242C9.18751 10.0107 8.81634 10.9776 8.9489 12.2372C9.03286 13.0311 9.46589 13.683 10.164 14.0689C11.1229 14.6011 12.3734 14.6189 13.3323 14.029C14.3618 13.3903 14.9583 12.2549 15.25 10.3389V10.33C14.9981 9.68692 14.6048 8.80432 14.1144 8.18782C14.1541 8.72005 14.2292 9.3942 14.0746 10.1083C13.7609 11.5364 13.562 12.2549 12.7578 12.8404C12.1392 13.2927 11.3173 13.204 10.8003 12.9158C10.4778 12.7383 10.2966 12.4634 10.2568 12.0997C10.1817 11.4211 10.2568 10.778 11.6929 8.9285C12.5943 7.76204 12.8815 6.28512 12.1922 4.98117C12.3557 5.06544 12.5457 5.17632 12.7269 5.30937C12.7269 5.30937 13.646 5.89482 14.6048 7.13668C14.8832 7.49593 15.8597 8.78657 16.7302 11.4078C14.7374 16.3708 11.8255 24.1679 11.8255 27.339C11.8255 30.5102 14.353 32.9984 17.4637 32.9984C20.5745 32.9984 23.102 30.4614 23.102 27.339C23.102 25.6226 22.0857 21.968 20.0752 16.4684C19.6156 15.2132 19.1517 13.9846 18.7142 12.8625L18.047 14.7741C19.8056 19.4045 21.7852 25.1791 21.7852 27.339C21.7852 29.7296 19.8454 31.6767 17.4637 31.6767C15.0821 31.6767 13.1422 29.7296 13.1422 27.339C13.1422 23.9905 16.8849 14.5479 18.1486 11.4255C18.8512 9.68249 19.3947 8.39628 19.5715 7.9838C20.5038 5.79281 22.3906 3.42885 24.6927 2.57729C22.9739 4.22719 23.5881 5.09205 24.2199 5.09205H25.9211C26.9772 5.18075 28.0819 5.3005 28.811 6.89274C29.0982 7.67334 29.6284 8.23661 30.3398 8.51603C30.1852 8.90189 30.0659 9.56717 30.8303 9.91755C30.2515 11.288 28.9833 12.5698 26.2349 12.2948C25.8725 12.2593 25.55 12.5255 25.5146 12.8847C25.4793 13.2484 25.7444 13.5722 26.1023 13.6076C26.1288 13.6076 26.1553 13.6076 26.1818 13.6121C25.8416 15.7188 25.9653 18.4775 26.5265 21.1076C27.1098 23.8397 28.0951 26.1149 29.3412 27.6362C28.6342 28.0221 28.1216 28.6164 27.8521 29.3837C27.7019 29.8139 28.0244 30.2618 28.4751 30.2618C28.7447 30.2618 29.001 30.0933 29.0982 29.8183C29.3854 28.9978 30.0791 28.6696 30.6536 28.541C33.3755 28.6696 33.2562 31.6722 30.8966 31.6722H23.345C22.9827 31.6722 22.6866 31.9694 22.6866 32.3331C22.6866 32.6968 22.9827 32.9939 23.345 32.9939H30.8966C32.9778 32.9939 33.5567 31.6722 33.5567 31.6722C33.8439 31.2243 33.9897 30.7054 33.9897 30.1864C33.9897 28.7051 32.8408 27.3612 30.8171 27.2282Z" fill="#FFE000"/>
</svg>
