<svg width="146" height="34" viewBox="0 0 146 34" fill="none" xmlns="http://www.w3.org/2000/svg">
<path d="M64.5562 27.701C57.6118 27.701 53.7329 23.0808 53.4281 17.237H63.9732C63.9732 17.237 60.0837 15.9638 53.5093 14.8004C54.1749 9.40906 58.0644 5.2762 64.5562 5.2762C72.2926 5.2762 75.5379 10.2967 75.5379 16.4886C75.5379 22.6805 72.1262 27.701 64.5562 27.701ZM64.5562 0C54.7832 0 47.9586 5.96434 46.6514 13.7923C44.4591 13.5339 42.1044 13.313 39.5979 13.1604V0.502048H32.6921V12.9301C32.4565 12.9288 32.2222 12.9274 31.9853 12.9274C26.4865 12.9274 21.4775 13.2929 17.1354 13.8137V0.502048H10.2322V14.8419C3.795 15.9919 0 17.237 0 17.237H10.2322V32.5488H17.1354V17.237H32.6921V32.5488H39.5979V17.237H46.4358C46.7752 26.0757 53.8421 33.1352 64.5562 33.1352C76.5362 33.1352 82.6926 25.7169 82.6926 16.5676C82.6926 7.41827 76.2859 0 64.5562 0Z" fill="#0055C4"/>
<path d="M116.137 0.669437H108.066L98.5702 14.2033L89.0155 0.669437H81.1952L95.088 19.3818V32.4658H101.91V19.6241L116.137 0.669437Z" fill="#0055C4"/>
<path d="M122.736 18.4915L126.937 8.45722L131.325 18.4915H122.736ZM137.435 32.4658H145.255L130.03 0.669437H123.791L109.398 32.4658H116.885L120.565 23.6793H133.595L137.435 32.4658Z" fill="#0055C4"/>
</svg>
