<svg width="175" height="174" viewBox="0 0 175 174" fill="none" xmlns="http://www.w3.org/2000/svg">
<g clip-path="url(#clip0_148_191)">
<path d="M129.877 28.4091C127.366 26.5838 126.505 26.2334 126.039 26.8693C125.54 27.5412 126.021 28.1651 128.291 29.8217C129.415 30.6425 130.848 31.5294 132.215 32.2817C132.46 32.42 132.509 32.6173 132.336 32.8887L131.827 33.701C131.684 33.9269 131.492 33.9555 131.235 33.8096C129.855 33.0402 128.81 32.411 127.981 31.8273L127.577 32.3815C127.414 32.6017 127.444 32.8028 127.67 32.9942C128.739 33.8359 130.431 34.9769 131.531 35.6345C131.788 35.7804 131.843 36.0061 131.664 36.2491L131.105 37.0121C130.926 37.2551 130.746 37.2912 130.478 37.1377C129.383 36.5086 127.356 35.0795 125.396 33.637C122.832 31.7434 121.328 30.6042 120.553 29.8914C120.334 29.6885 120.306 29.4969 120.475 29.2558L121.034 28.4928C121.203 28.2517 121.43 28.2459 121.665 28.4355C122.686 29.2866 124.502 30.6988 125.906 31.7395C125.834 31.5764 125.836 31.3885 125.977 31.2025L126.382 30.6577C123.837 28.6124 123.333 27.2334 124.442 25.7093C125.684 24.0104 127.391 24.3394 131.026 26.9855C131.802 27.5503 132.431 28.0754 134.132 29.4612C134.358 29.6526 134.379 29.8556 134.218 30.0853L133.658 30.8483C133.495 31.0685 133.276 31.1123 133.05 30.9208C131.463 29.6109 130.643 28.9759 129.902 28.4338L129.877 28.4091ZM125.105 34.2576C128.219 36.5246 129.147 38.3908 127.95 40.0213C126.754 41.6518 124.687 41.3553 121.573 39.0883C118.459 36.8213 117.54 34.9437 118.736 33.3132C119.932 31.6827 121.991 31.9906 125.105 34.2576ZM122.636 37.6324C124.754 39.1716 125.834 39.5275 126.338 38.8347C126.842 38.1419 126.192 37.2658 124.05 35.702C121.907 34.1383 120.869 33.7937 120.365 34.4865C119.861 35.1793 120.528 36.0914 122.646 37.6305L122.636 37.6324Z" fill="white"/>
<path d="M143.96 44.5191C144.141 44.7296 144.126 44.9004 143.914 45.0807L143.264 45.6352C143.061 45.8041 142.882 45.8005 142.701 45.59L137.062 39.0048C136.404 38.2387 136.389 37.4723 137.056 36.9046L139.361 34.9338C139.715 34.6262 140.054 34.6373 140.363 34.9995L145.602 41.1126C146.284 41.9033 146.259 42.7665 145.56 43.3703C144.934 43.9 144.04 43.9803 143.284 43.7076L143.979 44.5153L143.96 44.5191ZM143.622 42.3869C143.968 42.0907 143.974 41.7246 143.64 41.3378L140.207 37.3294C140.051 37.1435 139.88 37.1285 139.694 37.2842L138.908 37.9544C138.672 38.1595 138.686 38.4232 138.931 38.7095L141.964 42.2552C142.392 42.7615 143.105 42.816 143.611 42.3793L143.622 42.3869ZM132.137 48.9778C128.835 45.1306 128.383 43.9584 129.752 42.7964C131.028 41.7123 132.115 42.2542 134.799 45.3866C135.408 46.1033 136.041 46.894 136.658 47.5595C137.09 48.0354 137.327 48.1358 137.605 47.8928C137.902 47.646 137.879 47.3842 137.48 46.9215C136.332 45.5828 133.813 42.8317 132.467 41.4438C132.281 41.2542 132.313 41.0702 132.525 40.8898L133.124 40.3753C133.327 40.2063 133.485 40.2043 133.673 40.4034C134.445 41.1959 135.304 42.1287 136.184 43.0673L136.538 42.7597C136.68 42.6325 136.85 42.5887 137.007 42.6361C135.873 41.3145 134.405 39.5169 133.636 38.4379C133.476 38.2331 133.495 38.032 133.698 37.863L134.349 37.3086C134.56 37.1282 134.756 37.1679 134.929 37.3898C135.571 38.2772 136.71 39.7165 138.768 42.1454C140.338 44.0112 141.975 45.8637 142.899 46.7244C143.104 46.9102 143.108 47.1265 142.887 47.3087L142.254 47.8499C142.043 48.0302 141.872 48.0152 141.666 47.8294C140.746 46.9383 139.353 45.3627 138.465 44.3369C138.272 44.1093 138.064 44.1114 137.853 44.2917L137.524 44.5746C138.252 45.3956 138.925 46.1882 139.448 46.8234C140.183 47.7317 140.172 48.316 139.521 48.8705C138.989 49.3223 138.284 49.3551 137.654 48.9779L138.067 49.4577C138.236 49.6606 138.207 49.8142 138.013 49.9813L137.473 50.4446C137.262 50.625 137.091 50.6099 136.943 50.4127C136.278 49.5594 135.173 48.2416 133.635 46.4384C131.74 44.2332 131.438 44.0076 131.041 44.3437C130.577 44.7424 131.029 45.2733 133.325 47.9507C134.163 48.9272 135.561 50.3738 136.538 51.2534C136.732 51.4316 136.73 51.6195 136.547 51.7941L135.984 52.3409C135.786 52.5383 135.617 52.5328 135.425 52.364C134.463 51.5109 133.001 49.9885 132.139 48.9873L132.137 48.9778Z" fill="white"/>
<path d="M138.401 52.8047L139.252 52.3678C139.513 52.2367 139.737 52.3201 139.842 52.5951C140.296 53.7767 141.223 55.9389 142.075 57.6724C142.067 57.3878 142.236 57.0974 142.543 56.9474L144.372 56.0089L143.481 54.2736C142.895 53.1281 143.135 52.1034 144.128 51.5298L149.591 48.4432C149.829 48.297 150.072 48.3765 150.203 48.6363L150.705 49.6112C150.834 49.8615 150.768 50.0721 150.511 50.2222L149.018 51.0636L152.017 56.905L153.561 56.1717C153.833 56.0482 154.044 56.1144 154.173 56.3648L154.675 57.3396C154.806 57.5994 154.736 57.8404 154.481 57.9506L148.786 60.5706C147.734 61.0475 146.765 60.6498 146.179 59.5043L145.301 57.786L143.327 58.7928C142.987 58.9695 142.936 59.2067 143.12 59.5841C143.802 60.9173 144.728 62.4781 145.41 63.4661C145.579 63.7183 145.515 63.9384 145.256 64.079L144.404 64.5159C144.144 64.647 143.976 64.6016 143.786 64.3437C143.07 63.3823 141.924 61.3625 140.707 58.9918C139.444 56.532 138.605 54.6676 138.195 53.4082C138.094 53.1028 138.169 52.9301 138.41 52.8028L138.401 52.8047ZM145.702 52.9213C145.293 53.1511 145.194 53.4965 145.422 53.9441L147.575 58.1298C147.803 58.5773 148.147 58.7156 148.583 58.5199L150.336 57.6954L147.402 51.9792L145.711 52.9194L145.702 52.9213Z" fill="white"/>
<path d="M159.373 74.4804C159.441 74.7725 159.337 74.9414 159.053 75.008L158.034 75.2515C157.741 75.32 157.574 75.2253 157.506 74.9331L155.002 64.652C154.934 64.3599 155.038 64.1909 155.322 64.1244L156.341 63.8808C156.634 63.8123 156.803 63.9166 156.869 64.1992L157.975 68.7328C158.032 68.5241 158.209 68.3703 158.502 68.3018L158.878 68.2067C159.171 68.1382 159.34 68.2424 159.407 68.525L159.676 69.6252C159.745 69.9174 159.64 70.0863 159.357 70.1529L158.716 70.3108C158.499 70.364 158.419 70.5083 158.48 70.7624L159.384 74.4879L159.373 74.4804ZM144.843 65.6699L145.777 65.4436C146.069 65.3751 146.254 65.5059 146.294 65.8037C146.455 67.0538 146.859 69.37 147.277 71.2594C147.34 70.9804 147.568 70.7374 147.899 70.6613L149.342 70.3132C148.832 67.4658 149.437 66.0425 151.182 65.624C153.144 65.1522 154.405 66.4585 155.271 70.0436C156.146 73.6269 155.635 75.3669 153.663 75.8406C151.862 76.2801 150.649 75.2109 149.792 72.2651L148.218 72.6494C147.842 72.7445 147.737 72.9628 147.838 73.3668C148.189 74.8255 148.723 76.5535 149.154 77.6707C149.259 77.9457 149.143 78.1563 148.859 78.2229L147.926 78.4493C147.633 78.5178 147.487 78.4287 147.369 78.1367C146.901 77.0366 146.257 74.8078 145.63 72.2205C144.973 69.5307 144.601 67.5237 144.497 66.2128C144.472 65.8922 144.581 65.7422 144.854 65.6775L144.843 65.6699ZM151.354 70.9759C151.933 73.3754 152.408 74.0695 153.192 73.8831C153.975 73.6966 154.076 72.8675 153.495 70.4584C152.915 68.0588 152.44 67.3648 151.657 67.5512C150.874 67.7377 150.774 68.5763 151.354 70.9759Z" fill="white"/>
<path d="M152.88 79.5895C152.884 79.3125 153.038 79.1929 153.314 79.187L154.274 79.192C154.571 79.1918 154.708 79.3321 154.708 79.6281C154.705 80.9505 155.966 81.8622 157.656 81.8591L160.594 81.8629C160.89 81.8627 161.027 82.003 161.027 82.2989L161.029 83.3443C161.029 83.6403 160.888 83.777 160.591 83.7772L157.663 83.7715C155.971 83.7651 154.71 84.6784 154.708 86.0008C154.708 86.2967 154.567 86.4334 154.27 86.4336L153.31 86.4286C153.033 86.425 152.871 86.3094 152.873 86.0229C152.881 84.6303 153.8 83.2922 155.135 82.798C153.811 82.3132 152.89 80.9687 152.888 79.5781L152.88 79.5895ZM158.717 87.5557C158.719 87.9598 158.841 88.0736 159.189 88.0828L160.811 88.0836C161.107 88.0835 161.244 88.2238 161.244 88.5197L161.246 89.5651C161.246 89.861 161.105 89.9977 160.808 89.9979L151.106 89.9873C150.809 89.9875 150.672 89.8472 150.672 89.5512L150.671 88.5059C150.671 88.2099 150.812 88.0732 151.108 88.073L157.111 88.0747C156.921 87.9648 156.793 87.724 156.795 87.4868L156.797 85.9671C156.798 85.6712 156.938 85.5345 157.235 85.5343L158.283 85.5317C158.579 85.5315 158.716 85.6718 158.716 85.9678L158.717 87.5557ZM151.105 92.9469C150.808 92.9471 150.672 92.8068 150.672 92.5109L150.67 91.4655C150.67 91.1695 150.811 91.0329 151.107 91.0327L160.987 91.0375C161.283 91.0373 161.42 91.1776 161.42 91.4735L161.422 92.5189C161.422 92.8148 161.281 92.9515 160.984 92.9517L151.105 92.9469ZM151.349 82.165L151.351 83.2103C151.351 83.5063 151.162 83.7018 150.877 83.6603C150.461 83.6056 149.828 83.5548 149.145 83.5533C148.098 83.5559 147.54 84.2298 147.536 85.296C147.535 88.5516 147.63 90.8016 147.823 92.8542C147.859 93.1331 147.713 93.2907 147.399 93.3042L146.435 93.3788C146.171 93.3923 146.034 93.252 145.996 92.9636C145.829 91.2411 145.693 88.4371 145.696 85.3883C145.696 82.9713 146.927 81.5608 148.954 81.5595C149.686 81.5609 150.454 81.5945 150.893 81.6644C151.19 81.7136 151.349 81.869 151.349 82.165Z" fill="white"/>
<path d="M158.295 97.2484L159.312 97.4887C159.603 97.5587 159.706 97.7256 159.635 98.0159L158.086 104.502C158.015 104.792 157.848 104.894 157.557 104.824L156.54 104.584C156.249 104.514 156.147 104.347 156.217 104.057L157.766 97.5713C157.837 97.281 158.004 97.1784 158.295 97.2484ZM158.427 107.837L158.176 108.903C158.111 109.172 157.9 109.303 157.609 109.233L143.483 105.896C143.192 105.826 143.061 105.616 143.126 105.346L143.377 104.28C143.442 104.01 143.653 103.879 143.944 103.949L149.849 105.342C149.657 105.173 149.594 104.909 149.674 104.568L149.939 103.469C150.009 103.179 150.177 103.076 150.468 103.146L151.485 103.387C151.776 103.457 151.878 103.623 151.808 103.914L151.524 105.115C151.427 105.519 151.553 105.75 151.925 105.834L158.07 107.287C158.361 107.357 158.492 107.567 158.427 107.837ZM146.94 98.861C147.568 96.2197 149.587 94.9965 152.182 95.6114C155.036 96.283 156.112 98.1491 155.375 101.236C155.172 102.096 154.949 102.811 154.702 103.403C154.58 103.684 154.397 103.76 154.116 103.688L153.15 103.458C152.848 103.38 152.743 103.204 152.848 102.936C153.105 102.243 153.322 101.549 153.44 101.052C153.923 99.0214 153.34 97.9347 151.69 97.545C150.247 97.2025 149.142 97.9071 148.755 99.5333C148.601 100.196 148.58 101.176 148.68 102.32C148.699 102.415 148.673 102.48 148.658 102.552C148.616 102.738 148.486 102.833 148.264 102.858L147.283 102.896C146.969 102.91 146.846 102.786 146.792 102.471C146.608 101.354 146.671 99.99 146.938 98.8515L146.94 98.861Z" fill="white"/>
<path d="M121.301 150.083C124.016 148.582 124.709 147.94 124.325 147.258C123.922 146.529 123.154 146.693 120.697 148.053C119.478 148.731 118.069 149.645 116.798 150.56C116.574 150.723 116.367 150.676 116.196 150.414L115.669 149.612C115.527 149.394 115.588 149.204 115.829 149.028C117.107 148.101 118.126 147.413 119.005 146.912L118.678 146.317C118.541 146.078 118.351 146.017 118.081 146.15C116.868 146.758 115.111 147.81 114.059 148.534C113.818 148.71 113.589 148.657 113.449 148.399L112.996 147.572C112.856 147.315 112.888 147.13 113.149 146.95C114.179 146.221 116.336 144.99 118.475 143.822C121.274 142.295 122.946 141.408 123.925 141.014C124.199 140.9 124.389 140.961 124.539 141.217L124.991 142.044C125.132 142.302 125.045 142.507 124.784 142.638C123.582 143.204 121.529 144.256 119.994 145.086C120.173 145.09 120.338 145.175 120.446 145.371L120.773 145.966C123.707 144.52 125.168 144.652 126.08 146.295C127.102 148.142 126.087 149.539 122.143 151.719C121.306 152.183 120.555 152.53 118.572 153.49C118.302 153.623 118.108 153.543 117.971 153.304L117.519 152.477C117.382 152.239 117.446 152.018 117.709 151.897C119.569 151.011 120.493 150.54 121.303 150.092L121.301 150.083ZM118.006 143.304C114.632 145.173 112.546 145.226 111.57 143.458C110.593 141.691 111.736 139.943 115.109 138.074C118.483 136.205 120.582 136.169 121.559 137.937C122.535 139.704 121.379 141.435 118.006 143.304ZM115.978 139.646C113.69 140.913 112.907 141.741 113.323 142.486C113.739 143.231 114.813 143.016 117.137 141.732C119.461 140.448 120.212 139.656 119.805 138.909C119.389 138.164 118.277 138.387 115.987 139.644L115.978 139.646Z" fill="white"/>
<path d="M101.671 143.457C106.562 142.103 107.815 142.188 108.299 143.916C108.749 145.523 107.793 146.276 103.811 147.379C102.902 147.63 101.921 147.866 101.056 148.138C100.442 148.33 100.25 148.507 100.35 148.862C100.453 149.226 100.69 149.326 101.28 149.159C102.976 148.691 106.539 147.573 108.38 146.938C108.629 146.849 108.779 146.957 108.852 147.219L109.062 147.975C109.133 148.228 109.062 148.37 108.804 148.461C107.758 148.819 106.55 149.208 105.314 149.604L105.434 150.053C105.482 150.241 105.465 150.402 105.35 150.524C107.027 150.06 109.286 149.489 110.595 149.257C110.851 149.206 111.019 149.3 111.089 149.553L111.313 150.376C111.387 150.647 111.269 150.799 110.995 150.864C109.912 151.081 108.126 151.497 105.05 152.33C102.696 152.969 100.313 153.663 99.1397 154.125C98.8849 154.235 98.6872 154.137 98.615 153.875L98.3947 153.071C98.3206 152.8 98.41 152.653 98.6648 152.543C99.8589 152.087 101.884 151.484 103.196 151.123C103.477 151.047 103.578 150.859 103.504 150.588L103.39 150.167C102.335 150.477 101.323 150.758 100.532 150.956C99.3914 151.234 98.8762 150.982 98.6425 150.16C98.4583 149.487 98.7246 148.842 99.3446 148.432L98.7361 148.603C98.4832 148.673 98.3463 148.582 98.276 148.33L98.088 147.637C98.0139 147.366 98.1033 147.22 98.341 147.172C99.4001 146.931 101.062 146.49 103.348 145.854C106.158 145.075 106.487 144.89 106.348 144.395C106.181 143.807 105.516 143.99 102.097 144.941C100.851 145.289 98.9535 145.935 97.7327 146.456C97.4874 146.564 97.322 146.479 97.2327 146.23L96.9762 145.492C96.8831 145.225 96.9535 145.083 97.2007 144.984C98.3835 144.471 100.384 143.794 101.658 143.44L101.671 143.457ZM100.696 156.023C100.425 156.097 100.278 156.008 100.206 155.747L99.9818 154.923C99.9115 154.671 99.9971 154.506 100.26 154.434L108.636 152.115C109.609 151.842 110.314 152.154 110.542 152.996L111.354 155.912C111.483 156.359 111.325 156.657 110.876 156.787L103.101 158.945C102.089 159.227 101.319 158.838 101.072 157.951C100.856 157.165 101.16 156.315 101.729 155.747L100.708 156.031L100.696 156.023ZM102.784 156.621C102.902 157.061 103.24 157.221 103.727 157.084L108.823 155.669C109.057 155.602 109.146 155.456 109.08 155.223L108.802 154.233C108.723 153.933 108.475 153.834 108.101 153.939L103.594 155.187C102.957 155.363 102.598 155.988 102.774 156.623L102.784 156.621Z" fill="white"/>
<path d="M95.546 147.487L95.5799 148.447C95.5894 148.741 95.4239 148.902 95.1235 148.884C93.8591 148.791 91.5015 148.721 89.5697 148.753C89.8397 148.866 90.0222 149.135 90.0335 149.488L90.109 151.545L92.0636 151.479C93.3508 151.438 94.1816 152.081 94.2726 153.227L94.7502 159.464C94.7767 159.745 94.6056 159.927 94.3108 159.937L93.2119 159.98C92.9362 159.985 92.7689 159.841 92.7385 159.542L92.6059 157.842L86.0272 158.074L86.0324 159.779C86.0229 160.077 85.8764 160.235 85.5931 160.252L84.4941 160.295C84.1994 160.304 84.0169 160.134 84.0208 159.857L84.0642 153.604C84.0816 152.456 84.8594 151.748 86.1447 151.697L88.0784 151.626L88.001 149.412C87.9839 149.031 87.7862 148.883 87.3736 148.896C85.8716 148.95 84.0653 149.115 82.8807 149.322C82.584 149.372 82.4054 149.22 82.3959 148.926L82.3619 147.966C82.3525 147.672 82.4647 147.541 82.7784 147.478C83.9573 147.242 86.2732 147.055 88.9446 146.964C91.713 146.863 93.7569 146.898 95.0745 147.058C95.3901 147.104 95.5156 147.236 95.5307 147.51L95.546 147.487ZM92.3292 154.04C92.2951 153.573 92.0213 153.342 91.5194 153.354L86.8059 153.518C86.2963 153.541 86.0301 153.792 86.0243 154.257L86.0257 156.19L92.4561 155.958L92.3178 154.032L92.3292 154.04Z" fill="white"/>
<path d="M81.126 147.867L80.9375 148.802C80.8766 149.091 80.6731 149.21 80.3975 149.117C79.194 148.737 76.9163 148.128 75.0151 147.719C75.247 147.89 75.3686 148.201 75.2982 148.54L75.005 149.99C77.8112 150.72 78.8434 151.875 78.4931 153.632C78.099 155.615 76.3763 156.197 72.7506 155.472C69.1249 154.748 67.76 153.562 68.1541 151.579C68.5139 149.77 69.9952 149.119 73.0353 149.585L73.3495 147.993C73.4218 147.614 73.2659 147.428 72.8534 147.343C71.3799 147.046 69.5813 146.804 68.3873 146.718C68.0869 146.699 67.95 146.509 68.009 146.212L68.1975 145.276C68.2584 144.988 68.3972 144.891 68.7147 144.896C69.9202 144.941 72.215 145.291 74.8311 145.812C77.5499 146.353 79.5386 146.853 80.7782 147.315C81.0766 147.423 81.1698 147.592 81.1146 147.859L81.126 147.867ZM66.9777 157.309C66.6887 157.248 66.5765 157.083 66.6375 156.795L66.8469 155.767C66.9078 155.478 67.0732 155.366 67.3622 155.427L77.7735 157.495C78.0624 157.556 78.1746 157.721 78.1137 158.009L77.9043 159.038C77.8434 159.326 77.6779 159.438 77.3889 159.378L72.8069 158.47C72.9742 158.614 73.0388 158.838 72.9779 159.126L72.9055 159.506C72.8446 159.794 72.6792 159.906 72.3902 159.846L71.278 159.625C70.989 159.564 70.8768 159.399 70.9377 159.111L71.0653 158.464C71.1091 158.238 71.0159 158.118 70.7574 158.062L66.9891 157.317L66.9777 157.309ZM73.5425 151.526C71.1127 151.045 70.2799 151.183 70.1295 151.962C69.9791 152.742 70.6825 153.193 73.1123 153.674C75.5421 154.154 76.3749 154.017 76.5253 153.237C76.6833 152.446 75.9723 152.006 73.5425 151.526Z" fill="white"/>
<path d="M63.3602 146.798L62.4115 146.357C62.1397 146.234 62.0484 145.976 62.1987 145.738C62.4232 145.378 62.7389 144.831 63.0319 144.22C63.4751 143.273 63.0988 142.48 62.1293 142.033C59.173 140.652 57.0932 139.796 55.1445 139.101C54.8802 139.016 54.7928 138.826 54.9107 138.526L55.2551 137.629C55.354 137.382 55.5385 137.316 55.8237 137.406C57.4606 137.976 60.067 139.043 62.837 140.333C65.029 141.354 65.7948 143.055 64.935 144.885C64.623 145.549 64.2654 146.232 64.02 146.587C63.8412 146.83 63.6396 146.91 63.3678 146.787L63.3602 146.798ZM65.0442 149.282C65.2951 149.4 65.3445 149.597 65.2265 149.848L64.8175 150.719C64.6939 150.99 64.5094 151.057 64.2357 150.924C63.0361 150.365 61.684 151.119 60.9612 152.645L59.7227 155.3C59.5991 155.571 59.4146 155.638 59.1428 155.515L58.1941 155.073C57.9222 154.95 57.8557 154.766 57.9889 154.493L59.2292 151.847C59.9502 150.312 59.6578 148.802 58.4563 148.234C58.1844 148.111 58.1179 147.927 58.2415 147.655L58.6506 146.784C58.7685 146.534 58.9472 146.439 59.1982 146.556C60.4624 147.142 61.2873 148.545 61.1634 149.951C62.1713 148.96 63.778 148.688 65.0442 149.282ZM55.3411 151.196C54.9799 151.021 54.8145 151.084 54.6699 151.399L53.9851 152.868C53.8614 153.139 53.677 153.206 53.4051 153.083L52.4564 152.641C52.1846 152.518 52.1181 152.334 52.2512 152.061L56.3679 143.285C56.4916 143.014 56.676 142.948 56.9479 143.071L57.8965 143.512C58.1684 143.635 58.2349 143.819 58.1017 144.093L55.5583 149.514C55.7295 149.382 56.0052 149.376 56.2333 149.478L57.6078 150.12C57.8797 150.243 57.9462 150.427 57.813 150.701L57.3698 151.648C57.2461 151.919 57.0617 151.986 56.7898 151.862L55.3506 151.194L55.3411 151.196ZM53.674 142.029C53.7977 141.758 53.9821 141.691 54.254 141.815L55.2026 142.256C55.4745 142.379 55.541 142.563 55.4173 142.835L51.2227 151.764C51.099 152.035 50.9146 152.102 50.6427 151.978L49.6941 151.537C49.4222 151.414 49.3557 151.23 49.4794 150.959L53.674 142.029Z" fill="white"/>
<path d="M50.0953 135.761C52.2244 137.456 52.4843 139.791 50.8144 141.872C48.9885 144.161 46.84 144.344 44.3497 142.377C43.6558 141.825 43.0989 141.315 42.6693 140.849C42.4659 140.623 42.4755 140.424 42.6562 140.19L43.2724 139.416C43.4702 139.169 43.6755 139.158 43.8732 139.355C44.394 139.882 44.9377 140.375 45.3274 140.691C46.9622 141.992 48.2038 141.921 49.2556 140.605C50.1799 139.444 50.011 138.156 48.6956 137.117C48.1652 136.69 47.2793 136.266 46.1899 135.862C46.0948 135.832 46.0473 135.792 45.9903 135.754C45.8382 135.637 45.8059 135.476 45.8934 135.271L46.2777 134.375C46.3976 134.085 46.563 134.022 46.8672 134.109C47.9566 134.414 49.1714 135.048 50.0877 135.773L50.0953 135.761ZM37.0543 142.338L36.195 141.652C35.9726 141.479 35.9441 141.238 36.1343 141.003L45.1742 129.654C45.3549 129.42 45.6059 129.39 45.8188 129.564L46.678 130.25C46.9004 130.423 46.9289 130.664 46.7387 130.899L42.952 135.643C43.1878 135.536 43.4577 135.601 43.7277 135.813L44.6192 136.512C44.8531 136.692 44.8739 136.895 44.6913 137.119L44.0352 137.941C43.8545 138.175 43.651 138.196 43.4267 138.014L42.4515 137.242C42.1227 136.983 41.8679 136.994 41.6225 137.3L37.6874 142.241C37.5068 142.474 37.2558 142.505 37.0429 142.33L37.0543 142.338ZM46.7196 146.706L46.073 147.526C45.8923 147.76 45.6888 147.781 45.4645 147.599L40.233 143.448C39.9992 143.268 39.9784 143.065 40.1609 142.841L40.8076 142.021C40.9883 141.787 41.1917 141.766 41.416 141.948L46.6475 146.099C46.8813 146.279 46.9022 146.482 46.7196 146.706Z" fill="white"/>
<path d="M21.9969 90.839C21.7411 86.9936 22.5763 85.0901 24.5955 84.9522C26.6148 84.8142 27.7133 86.5969 27.9672 90.4328C28.2229 94.2783 27.3687 96.1855 25.3476 96.314C23.3283 96.4519 22.2507 94.675 21.995 90.8295L21.9969 90.839ZM26.1742 90.5649C25.998 87.9564 25.5799 86.9056 24.73 86.9574C23.8706 87.0111 23.6194 88.0775 23.7918 90.7164C23.9641 93.3553 24.367 94.3795 25.2245 94.3163C26.082 94.2531 26.3561 93.1526 26.1818 90.5535L26.1742 90.5649ZM14.4447 90.9503C14.6493 94.0464 14.9362 94.936 15.7252 94.8766C16.5638 94.8172 16.7389 94.062 16.5532 91.2581C16.4623 89.8656 16.2288 88.2057 15.9326 86.6768C15.8775 86.4017 16.0125 86.2366 16.3206 86.1946L17.2732 86.0631C17.5337 86.0307 17.6781 86.1596 17.737 86.4536C18.0371 88.0015 18.2212 89.2175 18.3027 90.2173L18.9853 90.1694C19.2686 90.1521 19.396 89.9984 19.3866 89.7043C19.3508 88.3403 19.144 86.3199 18.9409 85.0584C18.882 84.7644 19.0323 84.5764 19.3251 84.5573L20.2625 84.4978C20.5553 84.4787 20.7055 84.5867 20.7586 84.9016C20.977 86.1403 21.1836 88.6046 21.3256 91.0425C21.5188 94.2296 21.6077 96.1059 21.5599 97.1513C21.5408 97.451 21.4115 97.5953 21.1187 97.6145L20.1813 97.6739C19.8885 97.6931 19.7364 97.5262 19.7365 97.2303C19.7368 95.8984 19.6537 93.6067 19.5515 91.8613C19.4754 92.0245 19.3213 92.1442 19.0951 92.15L18.4125 92.1979C18.4725 95.461 17.7383 96.7326 15.8541 96.8534C13.7473 96.999 12.9092 95.4799 12.6137 90.9913C12.5512 90.0371 12.5457 89.2194 12.5196 87.0149C12.5197 86.7189 12.668 86.5708 12.9399 86.546L13.8773 86.4865C14.1606 86.4693 14.3184 86.6153 14.3278 86.9093C14.3444 88.9678 14.3727 89.9979 14.4371 90.9123L14.4447 90.9503Z" fill="white"/>
<path d="M28.7902 75.9747C27.9524 80.9763 27.3418 82.0752 25.5717 81.7785C23.9157 81.5083 23.6403 80.3303 24.3182 76.2585C24.4686 75.3307 24.6761 74.3421 24.7923 73.4408C24.8818 72.8014 24.7944 72.5624 24.4351 72.4963C24.0567 72.4339 23.8646 72.6105 23.7675 73.212C23.4819 74.9462 22.9866 78.6461 22.7884 80.5699C22.7617 80.8318 22.6039 80.9324 22.3263 80.8795L21.5487 80.7491C21.292 80.7018 21.1894 80.5843 21.2123 80.3035C21.319 79.2068 21.4828 77.9508 21.641 76.6663L21.1809 76.5907C20.9869 76.5605 20.8482 76.46 20.7893 76.314C20.4998 78.0292 20.0658 80.3061 19.7308 81.5965C19.6737 81.8545 19.5083 81.9666 19.2516 81.9193L18.4131 81.7814C18.1375 81.7379 18.0424 81.5596 18.1071 81.2902C18.3774 80.22 18.7505 78.4288 19.2893 75.2924C19.7082 72.8902 20.0796 70.4483 20.1521 69.1809C20.1655 68.902 20.3272 68.771 20.6029 68.8145L21.4318 68.9543C21.7075 68.9978 21.8044 69.1362 21.7929 69.4246C21.7014 70.6958 21.3871 72.781 21.1625 74.1281C21.1129 74.4241 21.2536 74.5834 21.5198 74.6288L21.9495 74.7006C22.1075 73.6134 22.2865 72.5812 22.4331 71.7824C22.6597 70.642 23.1085 70.2661 23.9583 70.4116C24.6447 70.5306 25.1237 71.0464 25.2395 71.7729L25.3423 71.1506C25.3804 70.8963 25.5211 70.8089 25.7778 70.8562L26.4832 70.9715C26.7589 71.0149 26.8577 71.1628 26.8044 71.3905C26.5703 72.4436 26.2676 74.1418 25.8848 76.4775C25.4012 79.3464 25.4277 79.7258 25.9486 79.809C26.5514 79.9053 26.6618 79.2223 27.2483 75.731C27.4577 74.456 27.6712 72.46 27.7152 71.149C27.721 70.8815 27.8655 70.7637 28.1279 70.7901L28.915 70.8693C29.1983 70.9014 29.301 71.0189 29.2857 71.2883C29.2454 72.569 29.0225 74.6655 28.7997 75.9728L28.7902 75.9747ZM17.7753 69.8048C17.8191 69.5297 17.9579 69.4328 18.2336 69.4763L19.0816 69.6123C19.3383 69.6596 19.4542 69.7942 19.4104 70.0693L17.9785 78.6228C17.8128 79.6228 17.2309 80.124 16.3715 79.9804L13.3751 79.4853C12.9055 79.4116 12.7041 79.1462 12.7783 78.6775L14.1055 70.7369C14.275 69.7066 14.9482 69.1673 15.8684 69.3185C16.6764 69.4526 17.317 70.084 17.5963 70.837L17.7715 69.7858L17.7753 69.8048ZM16.3527 71.4411C15.9021 71.3636 15.6131 71.5991 15.535 72.0981L14.6686 77.3027C14.6286 77.5474 14.7255 77.6859 14.9708 77.7256L15.9842 77.8975C16.2903 77.9448 16.4824 77.7682 16.5452 77.3906L17.3145 72.7875C17.4211 72.1348 17.0086 71.5564 16.3527 71.4411Z" fill="white"/>
<path d="M27.7024 68.763L26.8165 68.3879C26.5465 68.2743 26.4629 68.0543 26.617 67.7866C27.2371 66.6859 28.2986 64.5793 29.0919 62.8125C28.8732 63.0042 28.548 63.0594 28.2343 62.925L26.3332 62.1218L25.576 63.9209C25.0719 65.1069 24.1287 65.5819 23.0507 65.1861L17.1837 62.9968C16.9175 62.9021 16.832 62.6726 16.9462 62.4031L17.3761 61.3898C17.4827 61.1317 17.6937 61.0499 17.9713 61.1522L19.574 61.7488L22.1404 55.7007L20.5834 54.9865C20.3191 54.852 20.2298 54.6528 20.3458 54.3928L20.7758 53.3794C20.8899 53.1099 21.1181 53.0149 21.371 53.1419L27.0382 55.8151C28.0762 56.3076 28.3954 57.3091 27.8913 58.4952L27.1398 60.2734L29.1816 61.1372C29.5371 61.283 29.752 61.1709 29.9213 60.7819C30.5054 59.4022 31.1218 57.6906 31.4358 56.5426C31.5177 56.2598 31.7344 56.1572 32.0044 56.2709L32.8903 56.6459C33.1603 56.7596 33.2325 56.9227 33.1564 57.2339C32.8747 58.3952 32.0642 60.5699 31.0236 63.0274C29.943 65.5818 29.0432 67.4094 28.3489 68.5349C28.1758 68.8063 27.999 68.8614 27.7404 68.7554L27.7024 68.763ZM23.1178 63.101C23.5569 63.2696 23.884 63.1252 24.0876 62.6602L25.9291 58.3258C26.1232 57.8627 26.013 57.5099 25.5871 57.3091L23.8324 56.4964L21.3193 62.4154L23.1273 63.0991L23.1178 63.101Z" fill="white"/>
<path d="M33.4744 55.5634L32.6988 54.9986C32.4555 54.8204 32.4384 54.587 32.6419 54.3687C33.5053 53.4461 35.023 51.6428 36.2004 50.1147C35.9512 50.2534 35.6204 50.2309 35.341 50.0205L34.1471 49.1447C32.289 51.3714 30.8058 51.8163 29.3573 50.7549C27.7338 49.5607 27.9358 47.7544 30.1307 44.7896C32.3236 41.8152 33.9894 41.0969 35.6129 42.2911C37.0975 43.3848 37.0553 45.0012 35.3492 47.5427L36.6495 48.5056C36.9612 48.7293 37.197 48.6722 37.4462 48.3362C38.342 47.1309 39.333 45.6106 39.9055 44.5687C40.052 44.3124 40.2802 44.2668 40.5235 44.4449L41.2991 45.0098C41.5424 45.188 41.5652 45.3511 41.4244 45.6358C40.8766 46.7024 39.5813 48.6289 37.9932 50.7719C36.3422 52.9965 35.047 54.5777 34.1057 55.5061C33.8736 55.7301 33.6892 55.7473 33.4668 55.5748L33.4744 55.5634ZM33.3833 47.157C34.8535 45.1659 35.0781 44.3613 34.4393 43.8874C33.7911 43.4154 33.0913 43.8712 31.6192 45.8529C30.1489 47.844 29.9149 48.6505 30.5631 49.1225C31.2114 49.5944 31.9112 49.1386 33.3833 47.157ZM30.9345 38.7787C31.1133 38.5357 31.3053 38.5072 31.5487 38.6853L32.3946 39.3051C32.6379 39.4833 32.6664 39.6749 32.4876 39.9179L26.1845 48.4405C26.0057 48.6834 25.8137 48.712 25.5703 48.5339L24.7244 47.914C24.4811 47.7359 24.4526 47.5443 24.6314 47.3013L27.4102 43.5487C27.2105 43.638 26.9861 43.604 26.7428 43.4258L26.431 43.2022C26.1877 43.024 26.1592 42.8324 26.338 42.5894L27.0151 41.6745C27.1939 41.4316 27.386 41.403 27.6198 41.5831L28.154 41.9792C28.3384 42.11 28.4905 42.0796 28.6464 41.8708L30.9269 38.7901L30.9345 38.7787Z" fill="white"/>
<path d="M41.9923 39.9766L42.7968 39.3025C43.025 39.1089 43.2969 39.1334 43.4432 39.3704C43.6713 39.7193 44.0324 40.2389 44.4734 40.7623C45.1482 41.5643 46.0266 41.5562 46.8386 40.8707C49.3375 38.7822 50.9997 37.2557 52.4564 35.7901C52.6523 35.5832 52.8615 35.5906 53.0744 35.8144L53.7454 36.4988C53.9221 36.6903 53.9107 36.88 53.7072 37.0983C52.4919 38.338 50.4323 40.2499 48.0837 42.1998C46.22 43.7568 44.3548 43.7258 43.0565 42.1804C42.5889 41.623 42.1195 41.0067 41.8952 40.6274C41.7451 40.3714 41.7698 40.1494 41.9885 39.9576L41.9923 39.9766ZM50.4112 33.2302C50.6051 33.4578 50.5841 33.6494 50.3559 33.8431L49.5515 34.5171C49.3233 34.7108 49.1313 34.69 48.9374 34.4625L42.6002 26.9121C42.4063 26.6846 42.4272 26.4929 42.6554 26.2993L43.4599 25.6252C43.6881 25.4315 43.8801 25.4523 44.074 25.6798L50.4112 33.2302ZM41.3861 30.8742C41.6904 30.616 41.7057 30.4453 41.4852 30.1836L40.4454 28.9416C40.2515 28.7141 40.2725 28.5225 40.5007 28.3288L41.3052 27.6547C41.5334 27.4611 41.7254 27.4818 41.9193 27.7094L48.1406 35.1252C48.3344 35.3527 48.3135 35.5443 48.0853 35.738L47.2808 36.412C47.0526 36.6057 46.8606 36.585 46.6667 36.3574L42.8119 31.7726C42.8556 31.9907 42.7472 32.2393 42.5608 32.395L41.4007 33.3671C41.1725 33.5608 40.9805 33.5401 40.7866 33.3125L40.1118 32.5105C39.9179 32.2829 39.9389 32.0913 40.1671 31.8976L41.388 30.8837L41.3861 30.8742ZM39.0223 40.4529C38.8112 40.6332 38.6154 40.5935 38.4329 40.3736L37.8209 39.6379C37.627 39.4103 37.6479 39.2187 37.8762 39.025C38.8936 38.1801 38.7818 36.634 37.6926 35.3427L35.8108 33.1053C35.617 32.8777 35.6379 32.6861 35.8661 32.4924L36.6706 31.8184C36.8988 31.6247 37.0908 31.6455 37.2847 31.873L39.1665 34.1104C40.2461 35.4036 41.7557 35.782 42.7731 34.9371C43.0013 34.7434 43.1933 34.7642 43.3872 34.9917L43.9993 35.7274C44.1799 35.9379 44.1817 36.1447 43.9687 36.3156C42.9018 37.2099 41.2724 37.3684 40.0538 36.6654C40.5269 37.9912 40.0892 39.5586 39.0223 40.4529Z" fill="white"/>
<path d="M57.1704 18.0469L58.1497 17.5549C58.4007 17.4257 58.6346 17.5071 58.7676 17.7765L65.2651 30.7205C65.3981 30.9898 65.3258 31.2213 65.0729 31.341L64.0936 31.833C63.8426 31.9622 63.6088 31.8808 63.4776 31.621L60.7619 26.2063C60.7543 26.4643 60.5907 26.6845 60.275 26.8365L59.2596 27.3456C58.9896 27.4786 58.809 27.4161 58.6778 27.1563L58.2046 26.2251C58.0735 25.9652 58.1344 25.7755 58.4044 25.6425L59.5092 25.0859C59.8876 24.9016 59.9771 24.6568 59.8098 24.3154L56.982 18.6864C56.849 18.4171 56.9213 18.1856 57.1742 18.0659L57.1704 18.0469ZM57.6422 32.6019C55.2063 33.8196 52.98 33.0717 51.7808 30.6877C50.4657 28.0705 51.2077 26.0476 54.0487 24.6304C54.8493 24.2333 55.5433 23.9464 56.148 23.7563C56.437 23.6688 56.6119 23.7522 56.7449 24.0215L57.1896 24.9091C57.3341 25.186 57.2542 25.3795 56.988 25.4822C56.2958 25.7293 55.6112 26.0143 55.1625 26.2423C53.2932 27.1788 52.8309 28.3269 53.5873 29.8328C54.2486 31.1604 55.5015 31.5409 56.9943 30.7981C57.6047 30.4885 58.373 29.8808 59.1869 29.0569C59.2516 28.9848 59.3143 28.9525 59.3771 28.9202C59.5482 28.8366 59.7041 28.8744 59.8638 29.0299L60.5234 29.7561C60.7363 29.9798 60.7229 30.1601 60.5137 30.3992C59.7758 31.2573 58.6861 32.0871 57.6441 32.6114L57.6422 32.6019ZM49.1108 24.9581L48.6471 24.025C48.5141 23.7556 48.5769 23.5754 48.8374 23.4443L54.814 20.4522C55.0746 20.3212 55.2647 20.3817 55.3977 20.6511L55.8709 21.5823C56.0039 21.8516 55.9412 22.0319 55.6711 22.1648L49.6945 25.1569C49.434 25.288 49.2438 25.2274 49.1127 24.9676L49.1108 24.9581Z" fill="white"/>
<path d="M144.629 123.868C144.808 124.02 144.962 124.196 145.076 124.42C145.357 124.985 145.186 125.512 144.735 125.928C144.284 126.344 143.735 126.513 143.13 126.555C142.66 126.58 142.187 126.537 141.756 126.357C141.271 126.158 140.837 125.87 140.642 125.337C140.493 124.943 140.57 124.582 140.809 124.248C141.153 123.745 141.673 123.523 142.251 123.397C143.028 123.231 144.009 123.341 144.648 123.864L144.629 123.868Z" fill="white"/>
<path d="M144.688 130.386C144.312 130.777 143.659 130.927 143.104 130.871C142.245 130.776 141.526 130.397 141 129.694C140.768 129.375 140.637 129.017 140.684 128.613C140.734 128.169 140.983 127.882 141.356 127.669C141.738 127.455 142.149 127.432 142.573 127.475C143.35 127.556 144.008 127.878 144.531 128.464C144.824 128.79 145.008 129.168 144.998 129.613C144.994 129.94 144.878 130.2 144.69 130.395L144.688 130.386Z" fill="white"/>
<path d="M134.926 134.818C134.317 134.348 134.165 133.342 134.192 132.636C134.204 132.003 134.383 131.414 134.809 130.925C135.138 130.543 135.581 130.435 136.016 130.634C136.288 130.757 136.509 130.969 136.661 131.235C137.052 131.906 137.175 132.621 137.061 133.384C137.008 133.76 136.901 134.116 136.688 134.435C136.317 135.003 135.568 135.261 134.983 134.856C134.96 134.84 134.948 134.833 134.926 134.818Z" fill="white"/>
<path d="M138.305 131.052C138.646 130.431 139.182 130.245 139.775 130.442C140.252 130.603 140.583 130.921 140.87 131.318C141.265 131.86 141.448 132.475 141.404 133.144C141.383 133.435 141.324 133.732 141.145 133.975C140.837 134.412 140.447 134.539 139.921 134.428C139.497 134.335 139.179 134.083 138.9 133.774C138.352 133.163 138.088 132.437 138.161 131.613C138.184 131.382 138.248 131.162 138.296 131.054L138.305 131.052Z" fill="white"/>
<path d="M139.329 128.411C138.635 129.487 137.062 129.684 135.883 129.673C134.556 129.663 132.248 129.296 131.686 127.87C131.368 127.075 131.656 126.189 132.253 125.616C132.974 124.919 133.962 124.82 134.903 125.026C134.728 124.992 134.805 124.138 134.816 123.997C134.91 122.884 135.65 120.999 137.125 121.306C138.146 121.516 138.642 122.659 139.03 123.509C139.381 124.277 139.577 125.106 139.647 125.95C139.702 126.719 139.801 127.557 139.428 128.263C139.397 128.309 139.376 128.352 139.346 128.398L139.329 128.411Z" fill="white"/>
<path d="M28.3708 126.871C28.1655 126.981 27.9316 127.048 27.6882 127.067C27.055 127.114 26.6349 126.745 26.4297 126.164C26.2245 125.584 26.2779 125.011 26.4815 124.447C26.6394 124.001 26.8639 123.592 27.2024 123.257C27.5827 122.885 28.0106 122.602 28.5791 122.627C28.9974 122.642 29.2978 122.858 29.5239 123.197C29.8546 123.713 29.8583 124.274 29.746 124.849C29.5956 125.629 29.1162 126.495 28.3803 126.869L28.3708 126.871Z" fill="white"/>
<path d="M22.3175 124.393C22.099 123.895 22.2151 123.24 22.4833 122.752C22.9056 121.997 23.5351 121.486 24.3927 121.275C24.7787 121.178 25.1608 121.21 25.5163 121.405C25.906 121.623 26.0733 121.964 26.1283 122.387C26.1852 122.82 26.0368 123.215 25.8428 123.579C25.4643 124.257 24.909 124.743 24.1674 124.99C23.7605 125.13 23.3403 125.155 22.9182 124.974C22.6254 124.845 22.4258 124.638 22.3156 124.384L22.3175 124.393Z" fill="white"/>
<path d="M22.0444 113.695C22.7099 113.316 23.7005 113.571 24.3526 113.865C24.9286 114.124 25.402 114.513 25.687 115.097C25.9056 115.546 25.837 115.994 25.4776 116.323C25.2513 116.526 24.9775 116.64 24.6789 116.68C23.9089 116.785 23.194 116.622 22.54 116.22C22.213 116.019 21.9279 115.78 21.7074 115.47C21.3273 114.904 21.3788 114.125 21.9835 113.737C22.0026 113.733 22.0178 113.711 22.0463 113.705L22.0444 113.695Z" fill="white"/>
<path d="M24.1938 118.256C24.631 118.809 24.6061 119.377 24.1858 119.845C23.8549 120.218 23.427 120.402 22.9536 120.507C22.2919 120.659 21.6549 120.589 21.0523 120.295C20.788 120.161 20.5466 119.992 20.3869 119.738C20.1075 119.281 20.1438 118.869 20.4519 118.433C20.7068 118.076 21.0643 117.886 21.4522 117.749C22.2299 117.485 22.9999 117.528 23.7394 117.913C23.9486 118.019 24.1254 118.161 24.2033 118.254L24.1938 118.256Z" fill="white"/>
<path d="M26.2296 120.226C25.5036 119.167 25.9394 117.64 26.4074 116.57C26.9343 115.349 28.1802 113.373 29.7089 113.403C30.5626 113.419 31.2678 114.028 31.5718 114.805C31.9348 115.729 31.6417 116.686 31.0863 117.468C31.1871 117.329 31.9381 117.721 32.0693 117.784C33.0635 118.305 34.512 119.712 33.6523 120.949C33.0532 121.809 31.8192 121.819 30.8742 121.841C30.0281 121.862 29.1802 121.726 28.3855 121.461C27.6535 121.213 26.836 120.982 26.3342 120.353C26.2962 120.311 26.2677 120.267 26.2392 120.224L26.2296 120.226Z" fill="white"/>
<path d="M89.522 16.8475C89.5544 16.6141 89.6286 16.3921 89.7636 16.1776C90.0908 15.6386 90.6384 15.5092 91.2259 15.6776C91.8134 15.8461 92.2544 16.2215 92.6022 16.724C92.8683 17.1146 93.0812 17.5357 93.1438 17.9967C93.2178 18.5145 93.2025 19.0306 92.8563 19.4747C92.5958 19.8031 92.2459 19.9324 91.8352 19.9061C91.2249 19.8705 90.7648 19.5482 90.3637 19.1254C89.8125 18.5452 89.3963 17.652 89.5201 16.838L89.522 16.8475Z" fill="white"/>
<path d="M95.0786 13.387C95.6166 13.5062 96.0766 13.9763 96.3161 14.4808C96.6905 15.2641 96.734 16.0742 96.4011 16.8807C96.247 17.247 96.0092 17.5412 95.6384 17.7141C95.241 17.9022 94.8531 17.8417 94.4767 17.6409C94.0889 17.4325 93.8532 17.0949 93.6784 16.7156C93.3401 16.0139 93.2719 15.2778 93.5078 14.5301C93.6334 14.1203 93.8578 13.7596 94.2477 13.5336C94.531 13.3684 94.8105 13.3321 95.0805 13.3965L95.0786 13.387Z" fill="white"/>
<path d="M103.943 19.3854C103.859 20.1519 103.07 20.8031 102.458 21.1526C101.908 21.4698 101.317 21.6277 100.672 21.52C100.182 21.4406 99.8509 21.1221 99.794 20.6403C99.7541 20.3424 99.8246 20.0521 99.9672 19.7769C100.334 19.0918 100.88 18.6076 101.591 18.3074C101.937 18.1592 102.304 18.066 102.692 18.0771C103.379 18.0975 103.983 18.598 103.949 19.3152C103.953 19.3341 103.949 19.3645 103.943 19.3854Z" fill="white"/>
<path d="M98.975 18.4757C98.2696 18.5084 97.8229 18.1539 97.69 17.5393C97.5836 17.0575 97.6788 16.5945 97.8671 16.1523C98.1278 15.528 98.5576 15.0572 99.1566 14.74C99.4152 14.5994 99.7023 14.5025 100.003 14.5212C100.535 14.5626 100.845 14.8261 101.025 15.3326C101.168 15.7479 101.118 16.1426 100.991 16.543C100.753 17.3305 100.27 17.9303 99.5227 18.297C99.3154 18.3977 99.091 18.4623 98.9731 18.4662L98.975 18.4757Z" fill="white"/>
<path d="M96.1781 18.9771C97.4691 19.0047 98.448 20.2391 99.0561 21.2518C99.7403 22.3972 100.626 24.5481 99.7034 25.7686C99.188 26.4538 98.2829 26.6745 97.4787 26.4606C96.509 26.2108 95.9065 25.4239 95.5949 24.5097C95.6481 24.6766 94.8932 25.0546 94.7677 25.1192C93.7598 25.6169 91.7747 25.9749 91.2636 24.5581C90.9178 23.5718 91.6254 22.562 92.1522 21.7857C92.6258 21.0891 93.2344 20.474 93.919 19.9917C94.5409 19.5416 95.2179 19.0213 96.0184 18.9696C96.0754 18.9581 96.1267 18.9676 96.1762 18.9676L96.1781 18.9771Z" fill="white"/>
</g>
<defs>
<clipPath id="clip0_148_191">
<rect width="148.618" height="147.484" fill="white" transform="translate(174.68 144.613) rotate(168.678)"/>
</clipPath>
</defs>
</svg>
