<svg width="103" height="101" viewBox="0 0 103 101" fill="none" xmlns="http://www.w3.org/2000/svg">
<g clip-path="url(#clip0_148_230)">
<path d="M9.91141 85.633C9.7322 85.4399 9.7391 85.2674 9.93208 85.0881L10.6075 84.4604C10.8005 84.2811 10.9728 84.288 11.152 84.4811L13.3714 86.8676L20.5602 80.1702C20.7531 79.9908 20.9668 79.9977 21.1391 80.1771L21.8008 80.8875C21.9662 81.0668 21.9593 81.2876 21.7732 81.46L14.5845 88.1575L16.8176 90.5578C16.9968 90.7509 16.9899 90.9234 16.7969 91.1027L16.1215 91.7304C15.9285 91.9097 15.7562 91.9028 15.577 91.7097L9.9183 85.633H9.91141Z" fill="white"/>
<path d="M5.52087 79.2463C3.88048 76.4598 4.81096 73.7904 8.22959 71.7764C11.6482 69.7623 14.4327 70.2451 16.0662 73.0317C17.7066 75.8183 16.7762 78.4876 13.3575 80.5017C9.9389 82.5158 7.15437 82.0329 5.52087 79.2463ZM14.6119 73.8939C13.5229 72.0385 11.6689 71.8039 9.1256 73.3076C6.5823 74.8044 5.88617 76.5356 6.98206 78.3911C8.07795 80.2465 9.92512 80.481 12.4684 78.9773C15.0117 77.4806 15.7078 75.7493 14.6119 73.8939Z" fill="white"/>
<path d="M9.00842 67.4641L12.2478 66.4847C12.496 66.4088 12.689 66.5122 12.7579 66.7468L13.0405 67.671C13.1094 67.9055 13.0129 68.0987 12.7579 68.1745L2.43307 71.2991C1.99196 71.4302 1.66802 71.2715 1.53706 70.8301L0.234397 66.5329C-0.468628 64.2085 0.434276 62.422 2.99825 61.6495C5.55533 60.877 7.31289 61.8495 8.01591 64.1809L9.00842 67.4641ZM2.83972 69.3264L7.38871 67.9469L6.42377 64.7534C6.00333 63.367 4.99015 62.8911 3.52207 63.3325C2.03331 63.7808 1.46124 64.7465 1.88168 66.126L2.84662 69.3195L2.83972 69.3264Z" fill="white"/>
<path d="M16.018 11.0992C16.1972 10.9129 16.3695 10.906 16.5625 11.0854L17.2311 11.7199C17.4172 11.8993 17.424 12.0717 17.2448 12.2649L14.991 14.6238L22.0971 21.4109C22.2832 21.5903 22.2901 21.811 22.1247 21.9903L21.4561 22.6939C21.2838 22.8732 21.0701 22.8801 20.8771 22.6939L13.7711 15.9067L11.5104 18.2795C11.3312 18.4657 11.1589 18.4726 10.9659 18.2933L10.2973 17.6587C10.1112 17.4794 10.1043 17.3069 10.2835 17.1138L16.018 11.1061V11.0992Z" fill="white"/>
<path d="M22.1522 6.33942C24.8334 4.53918 27.549 5.3117 29.7614 8.6087C31.967 11.9057 31.643 14.713 28.9619 16.5132C26.2808 18.3135 23.5652 17.541 21.3527 14.244C19.1471 10.9469 19.4711 8.13967 22.1522 6.33942ZM28.0176 15.1061C29.8028 13.906 29.9268 12.0437 28.2864 9.59504C26.6461 7.14643 24.8747 6.54635 23.0896 7.74651C21.3044 8.94668 21.1804 10.809 22.8208 13.2576C24.4612 15.7131 26.2325 16.3063 28.0176 15.1061Z" fill="white"/>
<path d="M34.0967 9.13939L35.2615 12.3122C35.3511 12.5605 35.2615 12.7537 35.0272 12.8364L34.1174 13.1675C33.8899 13.2503 33.69 13.1675 33.6004 12.9123L29.8785 2.7799C29.72 2.34536 29.8579 2.01428 30.2921 1.85563L34.5033 0.303697C36.7847 -0.5309 38.6181 0.262312 39.5348 2.7799C40.4584 5.29059 39.583 7.10463 37.3085 7.93922L34.0898 9.12559L34.0967 9.13939ZM31.8773 3.09028L33.5177 7.55296L36.6469 6.40108C38.0047 5.90446 38.4251 4.86294 37.8944 3.42136C37.3568 1.96599 36.3643 1.44178 35.0134 1.9453L31.8842 3.09718L31.8773 3.09028Z" fill="white"/>
<path d="M90.7522 12.8709C90.9521 13.0433 90.9659 13.2158 90.7935 13.4158L90.1939 14.1193C90.0216 14.3194 89.8493 14.3332 89.6494 14.1607L87.1681 12.0501L80.8065 19.5408C80.6342 19.7408 80.4205 19.7546 80.2344 19.5959L79.4969 18.9683C79.3108 18.8096 79.2901 18.5889 79.4624 18.3958L85.8241 10.9051L83.3291 8.78067C83.1292 8.60824 83.1154 8.4358 83.2877 8.23577L83.8874 7.53223C84.0597 7.3322 84.232 7.3184 84.4319 7.49084L90.7591 12.8709H90.7522Z" fill="white"/>
<path d="M95.8528 18.7137C97.8033 21.2865 97.1899 24.0455 94.0263 26.4458C90.8626 28.8392 88.0437 28.6806 86.1 26.1078C84.1495 23.535 84.7629 20.7761 87.9265 18.3757C91.0901 15.9823 93.9091 16.1409 95.8528 18.7137ZM87.444 25.0801C88.7398 26.7976 90.6076 26.8114 92.9579 25.0318C95.3082 23.2523 95.7976 21.452 94.5018 19.7345C93.2061 18.0171 91.3382 18.0033 88.9879 19.7828C86.6376 21.5624 86.1483 23.3626 87.444 25.0801Z" fill="white"/>
<path d="M93.7504 30.8252L90.6488 32.1771C90.4076 32.2806 90.2077 32.2047 90.1112 31.9771L89.7252 31.0873C89.6288 30.8597 89.7046 30.6596 89.9458 30.5562L99.8433 26.2521C100.264 26.0659 100.601 26.1901 100.788 26.6108L102.58 30.7286C103.551 32.9565 102.855 34.8326 100.402 35.9017C97.9479 36.9709 96.0938 36.1983 95.122 33.9704L93.7573 30.8252H93.7504ZM99.6572 28.2524L95.3012 30.1492L96.6314 33.2117C97.2104 34.536 98.2718 34.8947 99.6779 34.2808C101.105 33.6601 101.56 32.6392 100.987 31.3149L99.6572 28.2524Z" fill="white"/>
<path d="M93.323 87.6192C93.1645 87.8261 92.9922 87.8537 92.7854 87.6951L92.0479 87.1364C91.8411 86.9777 91.8136 86.8053 91.9721 86.5984L93.9364 83.9911L86.0929 78.0731C85.8861 77.9144 85.8517 77.7006 86.0033 77.5006L86.5891 76.7281C86.7339 76.528 86.9544 76.5004 87.1612 76.6591L95.0048 82.5771L96.976 79.963C97.1345 79.7561 97.3068 79.7285 97.5136 79.8871L98.2511 80.4458C98.4579 80.6045 98.4854 80.7769 98.3269 80.9838L93.3299 87.6192H93.323Z" fill="white"/>
<path d="M87.7817 93.0608C85.328 95.1577 82.5366 94.7024 79.9658 91.6813C77.3949 88.6602 77.3949 85.8323 79.8486 83.7423C82.3023 81.6455 85.0937 82.1007 87.6646 85.1218C90.2354 88.1429 90.2354 90.9709 87.7817 93.0608ZM80.9445 85.0322C79.3041 86.4254 79.3937 88.2878 81.3098 90.5363C83.2259 92.7849 85.0455 93.1712 86.6858 91.771C88.3262 90.3777 88.2366 88.5154 86.3205 86.2668C84.4045 84.0182 82.5849 83.632 80.9445 85.0322Z" fill="white"/>
<path d="M75.5959 91.6603L74.0727 88.6392C73.9555 88.4047 74.0244 88.1978 74.245 88.0874L75.1065 87.6529C75.3271 87.5425 75.5339 87.6115 75.651 87.846L80.5171 97.4818C80.7238 97.8957 80.6204 98.2406 80.2138 98.4475L76.2093 100.475C74.0451 101.572 72.129 100.986 70.9228 98.5992C69.7167 96.2127 70.3714 94.309 72.5426 93.2123L75.6028 91.6672L75.5959 91.6603ZM78.5045 97.4129L76.3609 93.1709L73.3834 94.6746C72.0946 95.3298 71.7982 96.4058 72.4874 97.7784C73.1904 99.1648 74.2381 99.5649 75.527 98.9165L78.5045 97.4129Z" fill="white"/>
<path d="M4.39745 44.5386C4.23203 44.5041 4.0804 44.4421 3.93566 44.3386C3.57036 44.0834 3.49455 43.6902 3.63929 43.2764C3.78403 42.8625 4.06662 42.5659 4.43881 42.3452C4.72829 42.1659 5.03155 42.0348 5.36928 42.0072C5.74147 41.9728 6.10677 42.0072 6.41003 42.2693C6.63748 42.4694 6.7064 42.7177 6.67194 43.0074C6.6237 43.4419 6.37557 43.7523 6.05852 44.0213C5.6243 44.3869 4.97641 44.649 4.39745 44.5317V44.5386Z" fill="white"/>
<path d="M2.15732 40.4537C2.2607 40.0812 2.61911 39.7639 2.98441 39.6191C3.55647 39.3845 4.13544 39.3845 4.70061 39.6536C4.95563 39.7708 5.15551 39.957 5.26579 40.226C5.38296 40.5157 5.32782 40.7916 5.1624 41.0468C4.99699 41.3089 4.74886 41.4676 4.46627 41.5779C3.95623 41.7849 3.43241 41.8056 2.90859 41.6124C2.61911 41.509 2.37787 41.3365 2.22624 41.0468C2.12286 40.8399 2.10907 40.6399 2.15732 40.4537Z" fill="white"/>
<path d="M6.7753 34.3917C7.3129 34.4813 7.74713 35.0676 7.97457 35.516C8.17445 35.916 8.26406 36.3437 8.16756 36.7989C8.09175 37.1438 7.85051 37.3645 7.50589 37.3921C7.29223 37.4059 7.08546 37.3438 6.89936 37.2334C6.42379 36.9437 6.10674 36.5368 5.92064 36.0195C5.83104 35.7643 5.7759 35.5022 5.79658 35.2332C5.83793 34.7503 6.21701 34.3365 6.72705 34.3917C6.74084 34.3917 6.76151 34.3917 6.7753 34.3917Z" fill="white"/>
<path d="M5.93437 37.8892C5.93437 38.3927 5.65868 38.6893 5.21756 38.7652C4.86605 38.8272 4.549 38.7376 4.23884 38.5858C3.80462 38.372 3.48068 38.0547 3.2808 37.6202C3.1912 37.427 3.13606 37.227 3.16363 37.0132C3.21187 36.6338 3.41175 36.4269 3.78394 36.3165C4.08032 36.2269 4.3629 36.2821 4.64549 36.3855C5.19689 36.5855 5.60354 36.9511 5.83788 37.496C5.9068 37.6478 5.93437 37.8064 5.94126 37.8961L5.93437 37.8892Z" fill="white"/>
<path d="M6.18243 39.895C6.25135 38.9845 7.17493 38.3292 7.91242 37.943C8.75329 37.5015 10.3179 36.9566 11.1518 37.6602C11.6205 38.0533 11.7377 38.7017 11.5585 39.2673C11.3448 39.9432 10.7521 40.3433 10.0973 40.5295C10.2214 40.495 10.4626 41.0468 10.4971 41.1434C10.8141 41.8745 10.9864 43.3092 9.95946 43.6058C9.24955 43.8127 8.55341 43.2678 8.0227 42.8609C7.54712 42.4953 7.13358 42.0401 6.81653 41.5366C6.52016 41.0744 6.17554 40.5778 6.17554 40.0053C6.17554 39.9639 6.17554 39.9294 6.17554 39.8881L6.18243 39.895Z" fill="white"/>
<path d="M57.3585 3.80899C57.3861 3.64345 57.4412 3.48481 57.5377 3.33996C57.779 2.9606 58.1649 2.87093 58.5854 3.00198C58.9989 3.12614 59.3091 3.40204 59.5503 3.76071C59.7364 4.0435 59.8812 4.34699 59.9225 4.67807C59.9708 5.05054 59.957 5.41611 59.702 5.73339C59.5159 5.9679 59.2677 6.05067 58.9714 6.02998C58.5371 5.99549 58.2132 5.76098 57.9306 5.45749C57.5446 5.03674 57.262 4.39528 57.3516 3.81589L57.3585 3.80899Z" fill="white"/>
<path d="M61.3424 1.408C61.7215 1.49767 62.0454 1.84254 62.2109 2.20121C62.4659 2.76681 62.4865 3.3393 62.2453 3.91869C62.135 4.18079 61.9627 4.38082 61.6939 4.50498C61.4044 4.63603 61.1356 4.58775 60.8668 4.436C60.598 4.28426 60.4326 4.03595 60.3086 3.76695C60.0811 3.26343 60.0397 2.73922 60.2121 2.20811C60.3086 1.91152 60.4671 1.66321 60.7497 1.50457C60.9495 1.38731 61.1494 1.36662 61.3424 1.4149V1.408Z" fill="white"/>
<path d="M67.5799 5.79556C67.511 6.34046 66.9458 6.7957 66.5047 7.03711C66.1119 7.25783 65.6914 7.36129 65.2365 7.27852C64.885 7.21644 64.6576 6.98193 64.6231 6.63705C64.6024 6.42323 64.6507 6.21631 64.7541 6.02318C65.0229 5.54035 65.4157 5.20237 65.9258 4.99545C66.1739 4.89199 66.4358 4.82991 66.7115 4.8437C67.194 4.8644 67.6213 5.22996 67.5868 5.74038C67.5868 5.75417 67.5868 5.77487 67.5868 5.78866L67.5799 5.79556Z" fill="white"/>
<path d="M64.058 5.08458C63.5549 5.09838 63.2447 4.84317 63.1551 4.40173C63.0793 4.05686 63.1551 3.73268 63.2999 3.41539C63.4928 2.97395 63.803 2.64287 64.2303 2.42215C64.4164 2.32559 64.6163 2.26351 64.83 2.2773C65.2091 2.31179 65.4296 2.50492 65.5537 2.87049C65.6502 3.16708 65.6088 3.44988 65.5192 3.73268C65.34 4.29137 64.9885 4.71212 64.4578 4.96733C64.313 5.0363 64.1476 5.07769 64.0649 5.08458H64.058Z" fill="white"/>
<path d="M62.0661 5.4151C62.9828 5.44959 63.6652 6.34626 64.0856 7.0705C64.5543 7.8913 65.1677 9.43634 64.4992 10.2985C64.127 10.7814 63.4791 10.9262 62.907 10.7676C62.2247 10.5813 61.8042 10.0088 61.5906 9.35357C61.6319 9.47083 61.0874 9.73293 60.9909 9.78121C60.2741 10.1261 58.8474 10.3537 58.5097 9.33977C58.2753 8.63623 58.7923 7.91889 59.1782 7.37399C59.5228 6.88427 59.964 6.45662 60.4533 6.11175C60.9013 5.80136 61.3838 5.43579 61.9559 5.4082C61.9972 5.4082 62.0317 5.4082 62.073 5.4082L62.0661 5.4151Z" fill="white"/>
<path d="M99.6435 50.8145C99.8089 50.8145 99.9743 50.8351 100.14 50.8972C100.56 51.0628 100.719 51.4283 100.67 51.8629C100.622 52.2974 100.415 52.6492 100.112 52.9527C99.8709 53.1941 99.6021 53.3872 99.2851 53.4976C98.9336 53.6148 98.5683 53.67 98.2099 53.4838C97.948 53.3458 97.817 53.1113 97.7825 52.8285C97.7274 52.394 97.8997 52.0353 98.1478 51.6973C98.4856 51.2421 99.0576 50.8351 99.6435 50.8145Z" fill="white"/>
<path d="M102.766 54.2631C102.752 54.6493 102.476 55.0425 102.152 55.2701C101.649 55.6288 101.091 55.7598 100.477 55.6357C100.202 55.5805 99.9675 55.4425 99.802 55.208C99.6228 54.9528 99.6159 54.6769 99.7124 54.3872C99.8089 54.0906 100.023 53.8837 100.264 53.7113C100.712 53.3871 101.222 53.2491 101.773 53.3181C102.083 53.3526 102.359 53.4699 102.566 53.7113C102.718 53.8837 102.773 54.0837 102.766 54.2769V54.2631Z" fill="white"/>
<path d="M99.6641 61.2301C99.1196 61.2715 98.5613 60.8024 98.2373 60.4162C97.9479 60.0713 97.7618 59.6781 97.7549 59.216C97.7549 58.8642 97.9341 58.5883 98.2649 58.4918C98.4717 58.4297 98.6854 58.4366 98.8921 58.5056C99.4159 58.678 99.8226 59.0022 100.126 59.4574C100.271 59.685 100.388 59.9264 100.429 60.1954C100.505 60.6783 100.222 61.1611 99.7192 61.2301C99.7054 61.2301 99.6848 61.2301 99.671 61.2301H99.6641Z" fill="white"/>
<path d="M99.6849 57.6354C99.5746 57.1457 99.7676 56.794 100.181 56.6146C100.505 56.4767 100.843 56.4905 101.181 56.5663C101.649 56.6698 102.035 56.9112 102.332 57.2906C102.463 57.4561 102.566 57.6423 102.587 57.8562C102.628 58.2355 102.483 58.4907 102.145 58.677C101.877 58.8287 101.587 58.8425 101.291 58.808C100.712 58.739 100.229 58.4769 99.8779 58.0079C99.7814 57.8769 99.7125 57.7251 99.6918 57.6423L99.6849 57.6354Z" fill="white"/>
<path d="M98.9818 55.7398C99.1265 56.6434 98.3821 57.4918 97.748 58.0367C97.0312 58.6575 95.6321 59.5542 94.6602 59.0575C94.1157 58.7816 93.8469 58.1816 93.8952 57.5815C93.9503 56.871 94.4259 56.3537 95.0255 56.0158C94.9152 56.0778 94.5569 55.595 94.4948 55.5122C94.0192 54.8708 93.523 53.5189 94.4466 52.9878C95.0945 52.6222 95.894 52.9878 96.5005 53.2637C97.0519 53.512 97.555 53.8568 97.9824 54.2776C98.3752 54.6569 98.8301 55.0639 98.9611 55.6157C98.968 55.6502 98.9749 55.6916 98.9818 55.7261V55.7398Z" fill="white"/>
<path d="M47.3854 97.1576C47.3509 97.3231 47.2889 97.4749 47.1855 97.6197C46.9305 97.9853 46.5376 98.0612 46.1241 97.9163C45.7105 97.7715 45.4141 97.4887 45.1936 97.1162C45.0144 96.8265 44.8834 96.523 44.8559 96.1851C44.8214 95.8126 44.8559 95.447 45.1178 95.1435C45.3177 94.9159 45.5658 94.8469 45.8553 94.8814C46.2895 94.9297 46.5996 95.178 46.8684 95.4953C47.2337 95.9298 47.4957 96.5782 47.3785 97.1576H47.3854Z" fill="white"/>
<path d="M43.3118 99.3998C42.9396 99.2964 42.6226 98.9377 42.4778 98.5721C42.2435 97.9996 42.2435 97.4202 42.5123 96.8547C42.6295 96.5994 42.8155 96.3994 43.0844 96.2891C43.3738 96.1718 43.6495 96.227 43.9045 96.3925C44.1665 96.5581 44.325 96.8064 44.4353 97.0892C44.642 97.5996 44.6627 98.1238 44.4697 98.648C44.3663 98.9377 44.194 99.1791 43.9045 99.3308C43.6978 99.4343 43.4979 99.4481 43.3118 99.3998Z" fill="white"/>
<path d="M37.2535 94.778C37.3431 94.24 37.9289 93.8054 38.3769 93.5778C38.7767 93.3778 39.204 93.2881 39.6589 93.3847C40.0036 93.4606 40.2241 93.702 40.2517 94.0469C40.2655 94.2607 40.2034 94.4676 40.0932 94.6538C39.8037 95.1298 39.397 95.447 38.8801 95.6333C38.6251 95.7229 38.3632 95.7781 38.0944 95.7574C37.6119 95.7161 37.1983 95.3367 37.2535 94.8263C37.2535 94.8125 37.2535 94.7918 37.2535 94.778Z" fill="white"/>
<path d="M40.7478 95.6202C41.251 95.6202 41.5474 95.8961 41.6232 96.3375C41.6852 96.6893 41.5956 97.0066 41.444 97.317C41.2303 97.7515 40.9133 98.0757 40.479 98.2757C40.286 98.3654 40.0862 98.4206 39.8725 98.393C39.4934 98.3447 39.2867 98.1447 39.1764 97.7722C39.0868 97.4756 39.1419 97.1928 39.2453 96.91C39.4452 96.3582 39.8105 95.9513 40.355 95.7167C40.5066 95.6478 40.6651 95.6202 40.7547 95.6133L40.7478 95.6202Z" fill="white"/>
<path d="M42.7468 95.372C41.837 95.303 41.1822 94.3788 40.7963 93.6407C40.3552 92.7992 39.8107 91.2335 40.5137 90.3989C40.9065 89.9299 41.5544 89.8126 42.1196 89.992C42.7951 90.2058 43.1948 90.799 43.3809 91.4542C43.3465 91.3301 43.8978 91.0887 43.9943 91.0542C44.7249 90.7369 46.1586 90.5645 46.4549 91.5922C46.6617 92.3026 46.1172 92.9993 45.7105 93.5304C45.3453 94.0063 44.8904 94.4202 44.3872 94.7375C43.9254 95.034 43.4292 95.3789 42.8571 95.3789C42.8157 95.3789 42.7813 95.3789 42.7399 95.3789L42.7468 95.372Z" fill="white"/>
</g>
<defs>
<clipPath id="clip0_148_230">
<rect width="103" height="101" fill="white"/>
</clipPath>
</defs>
</svg>
