<svg xmlns="http://www.w3.org/2000/svg" xmlns:xlink="http://www.w3.org/1999/xlink" width="147" height="39.305" viewBox="0 0 147 39.305">
  <defs>
    <clipPath id="clip-path">
      <rect id="사각형_16" data-name="사각형 16" width="147" height="39.305" fill="none"/>
    </clipPath>
  </defs>
  <g id="logo" transform="translate(0 0)">
    <rect id="사각형_15" data-name="사각형 15" width="3.976" height="27.546" transform="translate(37.175 11.222)" fill="#362f2d"/>
    <path id="패스_1" data-name="패스 1" d="M60.622,9.4,52.49,31.25,44.358,9.4H39.414V36.945H43.32v-19.7l7.271,19.522h3.8l7.27-19.486V36.945h3.906V9.4Z" transform="translate(7.647 1.824)" fill="#362f2d"/>
    <g id="그룹_2" data-name="그룹 2" transform="translate(0 0)">
      <g id="그룹_1" data-name="그룹 1" clip-path="url(#clip-path)">
        <path id="패스_2" data-name="패스 2" d="M84.384,17.494a8.981,8.981,0,0,1-.7,3.725,6.489,6.489,0,0,1-1.953,2.507,8.17,8.17,0,0,1-2.991,1.415,15.262,15.262,0,0,1-3.815.448H70.091V36.945H66.115V9.4h8.812a15.262,15.262,0,0,1,3.815.448,8.17,8.17,0,0,1,2.991,1.415,6.5,6.5,0,0,1,1.953,2.507,8.981,8.981,0,0,1,.7,3.725m-3.976,0a5.214,5.214,0,0,0-.484-2.4,3.732,3.732,0,0,0-1.29-1.451,4.947,4.947,0,0,0-1.863-.7,13.414,13.414,0,0,0-2.239-.179H70.091v9.457h4.443a13.414,13.414,0,0,0,2.239-.179,4.928,4.928,0,0,0,1.863-.7,3.732,3.732,0,0,0,1.29-1.451,5.214,5.214,0,0,0,.484-2.4" transform="translate(12.827 1.823)" fill="#362f2d"/>
        <path id="패스_3" data-name="패스 3" d="M109.847,23.277a17.715,17.715,0,0,1-.876,5.66,13.428,13.428,0,0,1-2.527,4.531,11.671,11.671,0,0,1-4.012,3.009,13.409,13.409,0,0,1-10.6,0,11.678,11.678,0,0,1-4.011-3.009,13.365,13.365,0,0,1-2.525-4.531,17.649,17.649,0,0,1-.879-5.66,17.649,17.649,0,0,1,.879-5.66,13.565,13.565,0,0,1,2.525-4.549,11.577,11.577,0,0,1,4.011-3.027,13.409,13.409,0,0,1,10.6,0,11.571,11.571,0,0,1,4.012,3.027,13.629,13.629,0,0,1,2.527,4.549,17.715,17.715,0,0,1,.876,5.66m-3.975,0a14.854,14.854,0,0,0-.61-4.334,10.566,10.566,0,0,0-1.737-3.457,8.1,8.1,0,0,0-2.74-2.275,7.908,7.908,0,0,0-3.652-.824,7.893,7.893,0,0,0-6.43,3.1,10.314,10.314,0,0,0-1.721,3.457,15.274,15.274,0,0,0-.591,4.334,15.274,15.274,0,0,0,.591,4.334A10.314,10.314,0,0,0,90.7,31.068a7.893,7.893,0,0,0,6.43,3.1,7.908,7.908,0,0,0,3.652-.824,8.1,8.1,0,0,0,2.74-2.275,10.566,10.566,0,0,0,1.737-3.457,14.854,14.854,0,0,0,.61-4.334" transform="translate(16.377 1.736)" fill="#362f2d"/>
        <path id="패스_4" data-name="패스 4" d="M125.734,36.945H109.615V9.4h3.976V33.542h12.143Z" transform="translate(21.266 1.824)" fill="#362f2d"/>
        <path id="패스_5" data-name="패스 5" d="M0,31.943s14.643,11.022,14.17,0c0,0-14.17-19.682,4.094-29.285,0,0,18.579-7.716,20.783,3.149,0,0-16.217-9.132-11.336,5.353,0,0,10.549,17.04-3.621,25.683,0,0,4.566-12.892-4.566-18.421,0,0,10.391,18.088-3.779,20.45A13.934,13.934,0,0,1,0,31.943" transform="translate(0 0)" fill="#6aae27"/>
      </g>
    </g>
  </g>
</svg>
