<svg width="148" height="32" viewBox="0 0 148 32" fill="none" xmlns="http://www.w3.org/2000/svg">
<g clip-path="url(#clip0_28_273)">
<path d="M6.1514 6.31573C5.97907 6.60402 6.20884 6.88344 6.47838 6.87457C6.67281 6.87457 6.87165 6.89674 7.07049 6.95884C7.26933 7.02093 7.4505 7.10963 7.60515 7.22051C7.82167 7.37575 8.17075 7.27374 8.18842 6.93666C8.21935 6.32904 7.94097 5.80125 7.46375 5.65489C6.98653 5.50853 6.46071 5.79238 6.1514 6.31573Z" fill="#FFE000"/>
<path d="M26.1196 7.40235C26.3008 7.33139 26.4952 7.29147 26.7029 7.2826C26.9106 7.27373 27.1094 7.29591 27.295 7.34913C27.5513 7.4201 27.8429 7.20721 27.7501 6.88787C27.5778 6.30686 27.1359 5.90326 26.6366 5.92543C26.1417 5.94761 25.7396 6.39556 25.6203 6.98988C25.554 7.31809 25.8678 7.50436 26.1152 7.40679L26.1196 7.40235Z" fill="#FFE000"/>
<path d="M30.8151 26.23C30.7886 26.2211 30.7577 26.2167 30.7267 26.2122C28.0181 23.4269 26.7808 16.6766 27.5143 12.6228C29.9755 12.4321 31.7077 10.9773 32.3572 8.49804C32.6444 7.40254 32.1363 6.55542 31.0846 6.35583C30.5677 6.25826 30.2274 5.95223 30.0374 5.42001C30.033 5.40227 30.0242 5.38453 30.0153 5.37122C29.0211 3.16249 27.3022 2.88751 26.1622 2.7855V2.77219C25.7513 2.79437 25.2387 2.79437 25.5127 2.48834C26.2417 1.67669 26.3699 1.29527 26.4538 1.00254C26.6394 0.350569 25.9501 -0.0752109 25.4375 0.0134931C22.6052 0.483625 19.8302 3.02056 18.3632 6.46228C18.1732 6.91024 17.8462 7.68196 17.4397 8.67545C16.9227 7.42915 15.8666 4.41765 12.8266 2.83428C11.4877 2.13796 10.1709 1.9162 8.79671 2.0049C7.64785 2.07586 5.26175 2.22222 3.97591 5.11398C3.93614 5.15389 3.62241 5.42001 2.27029 5.56637C1.43957 5.65507 0.670718 5.65064 0.661881 5.6462H0.653044C0.299548 5.64177 0.00349455 5.93449 -0.00092415 6.29374C-0.0495299 10.0459 1.634 11.6781 2.89774 12.3744C2.89774 12.3744 2.89774 12.3744 2.90216 12.3744C3.66218 12.8357 4.62546 12.9421 5.51362 12.9421C5.99525 12.9421 6.43712 12.9111 6.76411 12.8756C7.01156 14.4412 7.4711 20.7836 4.34266 26.2256C2.33657 26.3763 1.20538 27.7158 1.20538 29.1838C1.20538 29.7028 1.3512 30.2217 1.63841 30.6696C1.63841 30.6696 2.34983 31.9913 4.51499 31.9913H11.5893C11.9517 31.9913 12.2477 31.6942 12.2477 31.3305C12.2477 30.9668 11.9517 30.6696 11.5893 30.6696H4.30289C3.07449 30.6696 2.52657 29.9245 2.52657 29.1838C2.52657 28.2436 3.34403 27.5783 4.60778 27.5384C5.18663 27.667 5.88479 27.9952 6.172 28.8201C6.29131 29.1661 6.6669 29.3435 7.01156 29.2237C7.35621 29.104 7.53296 28.727 7.41366 28.3811C7.1176 27.5339 6.52108 26.8908 5.69478 26.5138C8.62438 21.1428 8.40345 14.9468 8.0853 12.8268C8.02786 12.4365 7.8732 11.9442 7.84227 11.8777C7.72297 11.6071 7.43575 11.4474 7.13528 11.4962C6.56085 11.5894 5.00547 11.7535 3.9273 11.3898C3.89637 11.3809 3.86544 11.3676 3.83451 11.3587C2.65472 10.8443 1.87261 9.8286 1.52353 8.38272C1.95214 8.28515 2.57076 7.93477 2.97286 6.79492C4.21452 6.59534 4.92151 6.23165 5.17338 5.65507C5.77874 4.28016 6.6448 3.72132 7.60366 3.48182C8.09856 3.35764 9.37114 3.18466 10.4581 3.91204C10.763 4.11606 11.0061 4.4487 11.1519 4.87448C11.3949 5.58411 11.2182 6.38245 10.6526 7.11426C9.18556 9.01252 8.81439 9.9794 8.94695 11.239C9.0309 12.0329 9.46393 12.6849 10.1621 13.0707C11.1209 13.603 12.3714 13.6207 13.3303 13.0308C14.3599 12.3921 14.9564 11.2567 15.248 9.34073V9.33186C14.9961 8.68875 14.6029 7.80615 14.1124 7.18965C14.1522 7.72188 14.2273 8.39603 14.0726 9.1101C13.7589 10.5382 13.5601 11.2567 12.7559 11.8422C12.1372 12.2946 11.3154 12.2059 10.7984 11.9176C10.4758 11.7402 10.2947 11.4652 10.2549 11.1015C10.1798 10.4229 10.2549 9.77981 11.691 7.93033C12.5924 6.76387 12.8796 5.28695 12.1903 3.983C12.3538 4.06727 12.5438 4.17815 12.7249 4.31121C12.7249 4.31121 13.644 4.89665 14.6029 6.13851C14.8813 6.49776 15.8578 7.78841 16.7283 10.4096C14.7354 15.3726 11.8235 23.1697 11.8235 26.3409C11.8235 29.512 14.351 32.0002 17.4618 32.0002C20.5726 32.0002 23.1 29.4632 23.1 26.3409C23.1 24.6244 22.0837 20.9698 20.0732 15.4702C19.6137 14.215 19.1497 12.9865 18.7123 11.8644L18.0451 13.7759C19.8037 18.4063 21.7833 24.1809 21.7833 26.3409C21.7833 28.7314 19.8435 30.6785 17.4618 30.6785C15.0801 30.6785 13.1403 28.7314 13.1403 26.3409C13.1403 22.9923 16.8829 13.5497 18.1467 10.4274C18.8493 8.68432 19.3928 7.39811 19.5695 6.98563C20.5019 4.79464 22.3886 2.43068 24.6908 1.57912C22.9719 3.22902 23.5861 4.09388 24.218 4.09388H25.9192C26.9753 4.18258 28.0799 4.30234 28.809 5.89457C29.0962 6.67517 29.6265 7.23844 30.3379 7.51786C30.1832 7.90372 30.0639 8.569 30.8284 8.91938C30.2495 10.2899 28.9813 11.5716 26.2329 11.2967C25.8706 11.2612 25.548 11.5273 25.5127 11.8865C25.4773 12.2502 25.7424 12.574 26.1003 12.6095C26.1269 12.6095 26.1534 12.6095 26.1799 12.6139C25.8396 14.7206 25.9634 17.4793 26.5245 20.1094C27.1078 22.8415 28.0932 25.1168 29.3393 26.638C28.6323 27.0239 28.1197 27.6182 27.8502 28.3855C27.6999 28.8157 28.0225 29.2637 28.4732 29.2637C28.7427 29.2637 28.999 29.0951 29.0962 28.8201C29.3834 27.9996 30.0772 27.6714 30.6516 27.5428C33.3735 27.6714 33.2542 30.6741 30.8946 30.6741H23.3431C22.9807 30.6741 22.6847 30.9712 22.6847 31.3349C22.6847 31.6986 22.9807 31.9958 23.3431 31.9958H30.8946C32.9758 31.9958 33.5547 30.6741 33.5547 30.6741C33.8419 30.2261 33.9877 29.7072 33.9877 29.1883C33.9877 27.7069 32.8389 26.363 30.8151 26.23Z" fill="#FFE000"/>
<path d="M59.5148 14.512C57.9638 14.6317 55.5203 14.7116 54.5437 14.6717C54.0665 14.6539 53.8279 14.4322 53.8279 14.0552V13.5584C55.1403 13.5008 56.6294 13.3588 58.0213 13.2391C58.4764 13.1992 58.6752 12.9996 58.6399 12.6182L58.5382 11.3985C58.4985 10.9416 58.2996 10.7421 57.9196 10.782C55.6926 11.0215 53.386 11.1412 52.0737 11.1412C49.3518 11.1412 48.7155 10.9638 48.7155 10.2631C48.7155 9.5623 49.5506 9.38489 52.5907 9.38489C54.2035 9.38489 55.9091 9.50464 57.7606 9.60222C58.1361 9.62439 58.3792 9.38489 58.3792 8.98572V7.76604C58.3792 7.36687 58.198 7.18947 57.7606 7.14955C55.5954 6.94996 54.1019 6.92779 52.6525 6.92779C47.6638 6.92779 45.8345 7.80596 45.8345 10.2586C45.8345 12.4541 47.2264 13.3899 50.9425 13.5495V13.9886C50.9425 14.308 51.1016 14.5652 51.3799 14.685C49.2325 14.6672 46.7271 14.6273 45.238 14.5076C44.8226 14.4676 44.584 14.685 44.584 15.1063V16.2861C44.584 16.6631 44.7828 16.8848 45.238 16.9247C46.9701 17.0667 49.5904 17.0844 52.3742 17.0844C55.4761 17.0844 58.2996 17.0445 59.5324 16.9247C59.9876 16.8848 60.1864 16.6453 60.1864 16.2861V15.1063C60.1864 14.685 59.9301 14.4676 59.5104 14.5076L59.5148 14.512Z" fill="#1D1D1D"/>
<path d="M52.5387 17.7453C47.709 17.7453 45.7383 18.7432 45.7383 21.218C45.7383 23.6929 47.709 24.6908 52.5387 24.6908C57.3683 24.6908 59.339 23.6929 59.339 21.218C59.339 18.7432 57.3727 17.7453 52.5387 17.7453ZM52.5387 22.2958C49.397 22.2958 48.6237 22.074 48.6237 21.218C48.6237 20.362 49.397 20.1403 52.5387 20.1403C55.6804 20.1403 56.4536 20.362 56.4536 21.218C56.4536 22.074 55.6759 22.2958 52.5387 22.2958Z" fill="#1D1D1D"/>
<path d="M66.1567 12.8754H76.1783C76.5362 12.8754 76.713 12.6758 76.713 12.3387V11.3231C76.713 10.9638 76.5362 10.7864 76.1783 10.7864H74.9632C75.9 10.3872 76.4744 9.60665 76.4744 8.71074C76.4744 7.51324 75.7807 6.93666 74.3888 6.93666H64.9239C64.2699 6.93666 63.9297 7.27374 63.9297 7.95232V10.9461C63.9297 12.2234 64.6853 12.8798 66.1567 12.8798V12.8754ZM66.8151 9.60222C66.8151 9.26514 66.9521 9.12322 67.2923 9.12322H72.8599C73.3371 9.12322 73.558 9.34054 73.558 9.76189C73.558 10.2808 73.0808 10.68 72.4843 10.68H67.5707C67.0758 10.68 66.8151 10.4582 66.8151 10.0413V9.60222Z" fill="#1D1D1D"/>
<path d="M77.2523 13.4165C76.0195 13.5362 73.1562 13.5762 70.0543 13.5762C67.2705 13.5762 64.606 13.5584 62.896 13.4165C62.4806 13.3766 62.2773 13.5584 62.2773 13.9753V15.0309C62.2773 15.4079 62.4364 15.5897 62.896 15.6297C64.5088 15.7494 66.6519 15.7893 68.9982 15.7716C68.7596 15.8913 68.6403 16.1087 68.6403 16.3703V16.6276C67.1865 16.6852 65.777 16.7695 64.5441 16.8493C64.1862 16.8671 64.0271 17.0312 64.0271 17.3283V18.4859C64.0271 18.8053 64.226 18.9827 64.5441 18.9649C66.8905 18.7653 71.2827 18.6279 73.1739 18.6279C73.6688 18.6279 73.872 18.7476 73.872 19.0448C73.872 19.3242 73.6511 19.4439 73.1341 19.4439C72.2592 19.4439 71.0087 19.4617 69.9129 19.4617C65.5781 19.4617 63.6295 19.9584 63.6295 22.0563C63.6295 24.1541 65.3174 24.6686 71.0661 24.6686C72.6966 24.6686 75.2418 24.5089 76.6735 24.3094C76.9695 24.2694 77.1507 24.0699 77.133 23.7904L77.0358 22.6328C77.0181 22.3135 76.7972 22.1538 76.4791 22.2159C75.1667 22.4554 72.6834 22.5752 71.0529 22.5752C67.1379 22.5752 66.5193 22.5353 66.5193 22.0962C66.5193 21.6571 67.0363 21.5595 69.957 21.5595C73.5936 21.5595 74.6099 21.6172 76.0593 21.6172C76.3774 21.6172 76.5763 21.4176 76.5763 21.1382V20.1003C76.5763 19.8209 76.3553 19.6391 76.0593 19.6391H75.5821C76.2979 19.3996 76.7353 18.8407 76.7353 18.0646C76.7353 17.1066 76.0195 16.6453 74.7469 16.6054C73.7527 16.5655 72.6569 16.5655 71.5257 16.5655V16.3082C71.5257 15.9667 71.7068 15.7893 72.1399 15.7893C73.9692 15.7893 76.2979 15.7272 77.27 15.6297C77.7251 15.5897 77.8842 15.3902 77.8842 15.0309V13.9753C77.8842 13.554 77.6633 13.3766 77.2479 13.4165H77.2523Z" fill="#1D1D1D"/>
<path d="M94.9098 19.7633C93.5356 19.9451 91.5693 20.0604 90.4734 20.0604C89.8371 20.0604 89.2229 20.0604 89.2229 19.2222V17.5058H91.2114C92.8419 17.5058 93.8184 16.6276 93.8758 15.1507L94.1719 8.18739C94.1896 7.78822 93.951 7.54872 93.5135 7.54872H91.9449C91.4853 7.54872 91.2909 7.73056 91.2688 8.12973L91.2069 9.84615H84.327L84.2696 8.12973C84.2519 7.70838 84.0486 7.54872 83.5935 7.54872H82.0249C81.6095 7.54872 81.3488 7.78822 81.3709 8.18739L81.667 15.1507C81.7244 16.6276 82.7009 17.5058 84.3314 17.5058H86.3375V19.0625C86.3375 19.5592 86.5761 19.9407 86.9562 20.1225C84.7291 20.0604 82.1265 19.9008 80.633 19.7633C80.2132 19.7234 79.9746 19.9451 79.9746 20.362V21.8389C79.9746 22.2204 80.1734 22.42 80.633 22.4776C82.3651 22.7171 84.9854 22.8147 87.7692 22.8147C90.8711 22.8147 93.6947 22.6949 94.9275 22.4776C95.387 22.3978 95.5815 22.1982 95.5815 21.8389V20.362C95.5815 19.9407 95.3252 19.7012 94.9054 19.7633H94.9098ZM85.2461 14.8136C84.7512 14.8136 84.5303 14.614 84.5082 14.1527L84.4507 12.5383H91.0921L91.0346 14.1527C91.0125 14.614 90.796 14.8136 90.2967 14.8136H85.2461Z" fill="#1D1D1D"/>
<path d="M99.4033 10.5026H111.851C112.248 10.5026 112.465 10.2808 112.465 9.88607V8.56882C112.465 8.16965 112.244 7.95232 111.851 7.95232H107.697C107.339 7.95232 107.158 7.77048 107.158 7.51324V6.93666C107.158 6.51532 106.959 6.32017 106.544 6.32017H104.891C104.476 6.32017 104.277 6.51975 104.277 6.93666V7.37575C104.277 7.65516 104.374 7.83701 104.573 7.95232H99.4033C99.0056 7.95232 98.7891 8.17408 98.7891 8.56882V9.88607C98.7891 10.2852 99.0056 10.5026 99.4033 10.5026Z" fill="#1D1D1D"/>
<path d="M112.607 19.7633C111.056 19.9629 108.647 20.1048 107.675 20.0604C107.119 20.0427 106.92 19.8431 106.92 19.3242V18.1843C110.715 18.0025 111.931 16.9469 111.931 14.7737C111.931 12.4186 110.459 11.3985 105.629 11.3985C100.8 11.3985 99.3284 12.4141 99.3284 14.7737C99.3284 16.907 100.46 17.9448 104.039 18.1666V19.2843C104.039 19.7056 104.18 19.985 104.458 20.1225C102.249 20.0826 99.8277 19.9008 98.3342 19.7633C97.9144 19.7234 97.6758 19.9451 97.6758 20.362V21.8389C97.6758 22.2204 97.8746 22.42 98.3342 22.4776C100.066 22.7171 102.687 22.8147 105.47 22.8147C108.572 22.8147 111.396 22.6949 112.629 22.4776C113.088 22.3978 113.283 22.1982 113.283 21.8389V20.362C113.283 19.9407 113.026 19.7012 112.607 19.7633ZM102.17 14.7737C102.17 14.135 102.488 13.7935 105.629 13.7935C108.771 13.7935 109.089 14.1306 109.089 14.7737C109.089 15.47 108.771 15.8115 105.629 15.8115C102.488 15.8115 102.17 15.47 102.17 14.7737Z" fill="#1D1D1D"/>
<path d="M119.208 13.8334C119.703 15.3502 121.139 16.4679 122.748 16.4679C123.146 16.4679 123.322 16.2284 123.322 15.8514V14.3523C123.322 13.9753 123.123 13.7757 122.708 13.7757C121.276 13.7757 120.539 12.596 120.539 11.1013V7.66847C120.539 7.14955 120.34 6.94997 119.924 6.94997H118.453C118.038 6.94997 117.839 7.14955 117.839 7.57089V11.1013C117.839 12.5383 116.981 13.7757 115.492 13.7757C115.055 13.7757 114.834 13.9753 114.834 14.3523V15.8514C114.834 16.2107 115.033 16.4679 115.448 16.4679C117.079 16.4679 118.669 15.3902 119.204 13.8334H119.208Z" fill="#1D1D1D"/>
<path d="M129.071 6.4887H130.525C130.865 6.4887 131.139 6.76369 131.139 7.1052V18.3617C131.139 18.7033 130.861 18.9827 130.521 18.9827H129.071C128.731 18.9827 128.457 18.7077 128.457 18.3662V7.10963C128.457 6.76812 128.731 6.49314 129.071 6.49314V6.4887Z" fill="#1D1D1D"/>
<path d="M130.922 21.6172C128.815 21.8168 125.554 21.9764 122.673 21.9764C121.161 21.9764 120.428 21.4176 120.428 20.2778C120.428 19.7411 120.468 19.3996 120.547 18.7787C120.609 18.3617 120.309 18.1222 119.893 18.1222H118.325C117.905 18.1222 117.728 18.3617 117.666 18.7787C117.609 19.2577 117.547 19.7189 117.547 20.7168C117.547 23.2316 119.275 24.6686 122.319 24.6686C126.018 24.6686 129.04 24.5311 131.028 24.3094C131.426 24.2694 131.665 24.0876 131.643 23.6929L131.545 22.2337C131.528 21.8345 131.324 21.5728 130.927 21.6128L130.922 21.6172Z" fill="#1D1D1D"/>
<path d="M122.786 12.0771H124.121C124.399 12.0771 124.638 11.9573 124.774 11.7799V18.3662C124.774 18.7831 124.973 18.9827 125.393 18.9827H126.842C127.262 18.9827 127.461 18.7831 127.461 18.3662V7.30922C127.461 6.89231 127.262 6.69272 126.842 6.69272H125.393C124.973 6.69272 124.774 6.89231 124.774 7.30922V8.80832C124.774 9.18974 124.554 9.38933 124.16 9.38933H122.786C122.388 9.38933 122.172 9.60665 122.172 10.0058V11.465C122.172 11.8642 122.393 12.0815 122.786 12.0815V12.0771Z" fill="#1D1D1D"/>
<path d="M147.347 6.4887H145.778C145.363 6.4887 145.124 6.72821 145.124 7.14955V13.7358C145.124 14.3745 144.687 14.7914 144.011 14.7914H143.237C142.84 14.7914 142.623 15.0132 142.623 15.4079V16.9647C142.623 17.3638 142.844 17.5856 143.237 17.5856H143.935C144.47 17.5856 144.912 17.386 145.128 17.0267V23.7106C145.128 24.1275 145.367 24.367 145.782 24.367H147.351C147.771 24.367 148.009 24.1275 148.009 23.7106V7.14955C148.009 6.72821 147.771 6.4887 147.351 6.4887H147.347Z" fill="#1D1D1D"/>
<path d="M143.051 18.925C142.971 18.6279 142.772 18.4859 142.516 18.4859C142.414 18.4859 142.317 18.5037 142.198 18.5436C141.146 18.925 140.152 19.1645 139.255 19.1645C137.545 19.1645 136.569 18.2464 136.569 16.8094C136.569 15.1329 137.505 14.3523 139.511 14.3523C140.108 14.3523 140.943 14.41 141.699 14.5342C142.096 14.5918 142.357 14.4144 142.357 13.9753V12.4984C142.357 12.0992 142.216 11.8597 141.8 11.7976C141.124 11.7001 140.21 11.638 139.193 11.638C135.596 11.638 133.688 13.3766 133.688 16.7695C133.688 19.883 135.694 21.8567 138.977 21.8567C140.408 21.8567 141.897 21.5773 143.011 21.0983C143.431 20.9209 143.55 20.6991 143.431 20.2822L143.055 18.925H143.051Z" fill="#1D1D1D"/>
<path d="M134.558 7.7483H142.251C142.614 7.7483 142.91 8.04546 142.91 8.40915V9.78406C142.91 10.1477 142.614 10.4449 142.251 10.4449H134.558C134.196 10.4449 133.904 10.1477 133.904 9.7885V8.40915C133.904 8.04546 134.2 7.7483 134.563 7.7483H134.558Z" fill="#1D1D1D"/>
</g>
<defs>
<clipPath id="clip0_28_273">
<rect width="148" height="32" fill="white"/>
</clipPath>
</defs>
</svg>
