<svg width="181" height="36" viewBox="0 0 181 36" fill="none" xmlns="http://www.w3.org/2000/svg">
<g clip-path="url(#clip0_46_2005)">
<path d="M60.1357 29.2696C66.2518 29.2696 68.7435 27.9999 68.7435 24.8467C68.7435 21.6935 66.2518 20.4238 60.1357 20.4238C54.0196 20.4238 51.5278 21.6935 51.5278 24.8467C51.5278 27.9999 54.0196 29.2696 60.1357 29.2696ZM60.1357 23.4747C64.1117 23.4747 65.0953 23.7545 65.0953 24.8467C65.0953 25.9389 64.1147 26.2187 60.1357 26.2187C56.1566 26.2187 55.176 25.9389 55.176 24.8467C55.176 23.7545 56.1566 23.4747 60.1357 23.4747Z" fill="#243456"/>
<path d="M68.97 16.3066C67.0059 16.4601 63.9091 16.5593 62.6781 16.5112C62.073 16.4871 61.772 16.2073 61.772 15.7229V15.0881C63.4322 15.0128 65.3219 14.8353 67.0834 14.6819C67.6616 14.6307 67.9149 14.378 67.8643 13.8936L67.7391 12.344C67.6884 11.7603 67.438 11.5046 66.9582 11.5558C64.1386 11.8596 61.2176 12.0131 59.5575 12.0131C56.109 12.0131 55.3042 11.7844 55.3042 10.8938C55.3042 10.0032 56.3623 9.77456 60.2132 9.77456C62.2519 9.77456 64.4158 9.928 66.7585 10.0544C67.2354 10.0784 67.5394 9.77455 67.5394 9.26607V7.71655C67.5394 7.20807 67.3129 6.9794 66.7585 6.92825C64.0134 6.67552 62.1267 6.64844 60.2877 6.64844C53.9689 6.64844 51.653 7.7677 51.653 10.8908C51.653 13.686 53.4145 14.8804 58.1238 15.085V15.6447C58.1238 16.0509 58.3265 16.3818 58.6782 16.5353C55.9599 16.5112 52.7886 16.4601 50.899 16.3066C50.3714 16.2555 50.0674 16.5353 50.0674 17.0678V18.5662C50.0674 19.0476 50.3178 19.3274 50.899 19.3786C53.0897 19.5561 56.413 19.5832 59.936 19.5832C63.8644 19.5832 67.438 19.532 68.9969 19.3786C69.5751 19.3274 69.8284 19.0235 69.8284 18.5662V17.0678C69.8284 16.5353 69.5006 16.2555 68.973 16.3066H68.97Z" fill="#243456"/>
<path d="M77.3811 14.2254H90.0693C90.5223 14.2254 90.7489 13.9727 90.7489 13.5394V12.2426C90.7489 11.7853 90.5223 11.5566 90.0693 11.5566H88.5343C89.7176 11.0482 90.4478 10.0583 90.4478 8.91494C90.4478 7.38949 89.5656 6.65234 87.8041 6.65234H75.8222C74.9907 6.65234 74.5645 7.08561 74.5645 7.94913V11.7612C74.5645 13.389 75.5212 14.2254 77.3841 14.2254H77.3811ZM78.2097 10.0583C78.2097 9.62501 78.3855 9.4475 78.8147 9.4475H85.8637C86.4688 9.4475 86.746 9.72731 86.746 10.2599C86.746 10.9218 86.1409 11.4273 85.3868 11.4273H79.1694C78.5405 11.4273 78.2127 11.1475 78.2127 10.6149V10.0553L78.2097 10.0583Z" fill="#243456"/>
<path d="M91.4255 14.9106C89.8637 15.064 86.2393 15.1151 82.314 15.1151C78.7909 15.1151 75.417 15.0911 73.2531 14.9106C72.7255 14.8594 72.4722 15.0881 72.4722 15.6206V16.9686C72.4722 17.45 72.6748 17.6786 73.2531 17.7298C75.2918 17.8832 78.01 17.9344 80.9817 17.9073C80.6806 18.0607 80.5286 18.3406 80.5286 18.6685V18.9995C78.6896 19.0747 76.9043 19.177 75.3424 19.2793C74.8894 19.3034 74.6867 19.508 74.6867 19.8901V21.3644C74.6867 21.7706 74.9371 21.9992 75.3424 21.9752C78.3141 21.7224 83.8758 21.5419 86.2662 21.5419C86.8951 21.5419 87.1484 21.6953 87.1484 22.0744C87.1484 22.4295 86.8712 22.5829 86.2185 22.5829C85.1097 22.5829 83.5241 22.607 82.1411 22.607C76.6539 22.607 74.186 23.2419 74.186 25.9106C74.186 28.5794 76.326 29.2383 83.6015 29.2383C85.6671 29.2383 88.8891 29.0337 90.7012 28.781C91.0798 28.7299 91.3063 28.4771 91.2795 28.1191L91.1543 26.6448C91.1304 26.2386 90.8532 26.034 90.4509 26.1122C88.7907 26.4161 85.6432 26.5696 83.5777 26.5696C78.6181 26.5696 77.8372 26.5184 77.8372 25.9588C77.8372 25.3991 78.4929 25.2728 82.1918 25.2728C86.7997 25.2728 88.0813 25.348 89.9203 25.348C90.3227 25.348 90.576 25.0953 90.576 24.7372V23.4164C90.576 23.0613 90.2989 22.8327 89.9203 22.8327H89.3153C90.2214 22.5288 90.7757 21.8157 90.7757 20.8258C90.7757 19.6073 89.8696 19.0205 88.2572 18.9694C86.9994 18.9182 85.6134 18.9182 84.1798 18.9182V18.5873C84.1798 18.154 84.4063 17.9253 84.9607 17.9253C87.2766 17.9253 90.2214 17.8501 91.4553 17.7207C92.0335 17.6696 92.2362 17.4169 92.2362 16.9595V15.6116C92.2362 15.079 91.959 14.8504 91.4315 14.9015L91.4255 14.9106Z" fill="#243456"/>
<path d="M113.782 22.9938C112.045 23.2224 109.553 23.3759 108.17 23.3759C107.365 23.3759 106.584 23.3759 106.584 22.3078V20.1234H109.103C111.168 20.1234 112.399 19.0041 112.477 17.1236L112.855 8.25378C112.879 7.74529 112.578 7.44141 112.024 7.44141H110.036C109.458 7.44141 109.204 7.67007 109.18 8.17856L109.106 10.3629H100.397L100.322 8.17856C100.298 7.646 100.045 7.44141 99.4668 7.44141H97.4788C96.9513 7.44141 96.6234 7.74529 96.6472 8.25378L97.0258 17.1236C97.1003 19.0041 98.3342 20.1234 100.4 20.1234H102.942V22.1062C102.942 22.741 103.243 23.2254 103.723 23.4541C100.903 23.3789 97.607 23.1743 95.7173 22.9968C95.1898 22.9456 94.8857 23.2254 94.8857 23.758V25.6385C94.8857 26.1199 95.1361 26.3756 95.7173 26.4509C97.908 26.7547 101.231 26.8841 104.754 26.8841C108.68 26.8841 112.256 26.7307 113.815 26.4509C114.393 26.3486 114.647 26.0958 114.647 25.6385V23.758C114.647 23.2254 114.319 22.9185 113.791 22.9968L113.782 22.9938ZM101.547 16.6904C100.918 16.6904 100.641 16.4376 100.617 15.8509L100.543 13.7929H108.951L108.876 15.8509C108.853 16.4346 108.575 16.6904 107.947 16.6904H101.553H101.547Z" fill="#243456"/>
<path d="M136.187 22.9936C134.223 23.2463 131.177 23.4269 129.943 23.3757C129.24 23.3516 128.986 23.0959 128.986 22.437V20.9898C133.794 20.7611 135.329 19.4132 135.329 16.6451C135.329 13.6453 133.466 12.3516 127.35 12.3516C121.234 12.3516 119.371 13.6483 119.371 16.6451C119.371 19.365 120.805 20.6859 125.338 20.9657V22.3888C125.338 22.9214 125.514 23.2794 125.866 23.457C123.07 23.4058 120 23.1771 118.113 22.9996C117.586 22.9485 117.282 23.2283 117.282 23.7608V25.6413C117.282 26.1227 117.532 26.3785 118.113 26.4537C120.304 26.7576 123.627 26.887 127.15 26.887C131.076 26.887 134.652 26.7335 136.211 26.4537C136.789 26.3514 137.043 26.0987 137.043 25.6413V23.7608C137.043 23.2283 136.715 22.9214 136.187 22.9996V22.9936ZM122.972 16.6391C122.972 15.8267 123.374 15.3934 127.353 15.3934C131.332 15.3934 131.734 15.8267 131.734 16.6391C131.734 17.5297 131.332 17.9599 127.353 17.9599C123.374 17.9599 122.972 17.5267 122.972 16.6391Z" fill="#243456"/>
<path d="M118.691 8.73666V10.4126C118.691 10.921 118.969 11.2008 119.472 11.2008H135.23C135.734 11.2008 136.011 10.921 136.011 10.4126V8.73666C136.011 8.22818 135.734 7.94836 135.23 7.94836H129.97C129.517 7.94836 129.29 7.7197 129.29 7.38873V6.65158C129.29 6.11903 129.04 5.86328 128.509 5.86328H126.42C125.892 5.86328 125.639 6.11602 125.639 6.65158V7.21121C125.639 7.56625 125.764 7.79492 126.018 7.94836H119.472C118.969 7.94836 118.691 8.22818 118.691 8.73666Z" fill="#243456"/>
<path d="M152.375 22.0004H154.214C154.741 22.0004 154.995 21.7476 154.995 21.2121V7.134C154.995 6.60145 154.744 6.3457 154.214 6.3457H152.375C151.847 6.3457 151.594 6.59844 151.594 7.134V9.03856C151.594 9.51996 151.317 9.77571 150.813 9.77571H149.075C148.572 9.77571 148.294 10.0555 148.294 10.564V12.4204C148.294 12.9289 148.572 13.2087 149.075 13.2087H150.762C151.114 13.2087 151.418 13.0553 151.594 12.8266V21.2121C151.594 21.7446 151.844 22.0004 152.375 22.0004Z" fill="#243456"/>
<path d="M139.01 16.1053V18.0098C139.01 18.4672 139.26 18.7981 139.791 18.7981C141.853 18.7981 143.868 17.4261 144.548 15.4434C145.177 17.375 146.989 18.7981 149.028 18.7981C149.531 18.7981 149.758 18.4943 149.758 18.0098V16.1053C149.758 15.6239 149.507 15.3681 148.977 15.3681C147.165 15.3681 146.232 13.8698 146.232 11.9622V7.59045C146.232 6.92852 145.981 6.67578 145.451 6.67578H143.588C143.06 6.67578 142.807 6.92852 142.807 7.46408V11.9622C142.807 13.7915 141.725 15.3681 139.835 15.3681C139.281 15.3681 139.004 15.6209 139.004 16.1053H139.01Z" fill="#243456"/>
<path d="M159.373 25.3552C156.706 25.6079 152.577 25.8125 148.926 25.8125C147.013 25.8125 146.083 25.1024 146.083 23.6522C146.083 22.9662 146.133 22.5329 146.235 21.7477C146.309 21.2151 145.934 20.9082 145.403 20.9082H143.415C142.888 20.9082 142.661 21.2121 142.584 21.7477C142.509 22.3584 142.432 22.9421 142.432 24.2118C142.432 27.4132 144.622 29.2425 148.473 29.2425C153.156 29.2425 156.983 29.065 159.498 28.7852C160.002 28.734 160.303 28.5054 160.279 27.9969L160.154 26.1405C160.13 25.632 159.877 25.301 159.373 25.3522V25.3552Z" fill="#243456"/>
<path d="M158.869 6.0918H157.033C156.602 6.0918 156.252 6.44473 156.252 6.8801V21.2109C156.252 21.6463 156.602 21.9992 157.033 21.9992H158.869C159.301 21.9992 159.65 21.6463 159.65 21.2109V6.8801C159.65 6.44473 159.301 6.0918 158.869 6.0918Z" fill="#243456"/>
<path d="M175.209 23.6526L174.732 21.9255C174.631 21.5434 174.38 21.3659 174.053 21.3659C173.927 21.3659 173.802 21.39 173.65 21.4411C172.315 21.9225 171.057 22.2294 169.924 22.2294C167.761 22.2294 166.527 21.059 166.527 19.2297C166.527 17.0965 167.71 16.1036 170.252 16.1036C171.006 16.1036 172.064 16.1788 173.021 16.3322C173.525 16.4075 173.853 16.1788 173.853 15.6222V13.7417C173.853 13.2332 173.677 12.9293 173.146 12.8511C172.291 12.7247 171.132 12.6465 169.85 12.6465C165.293 12.6465 162.878 14.8579 162.878 19.1785C162.878 23.1441 165.421 25.6594 169.576 25.6594C171.388 25.6594 173.278 25.3044 174.684 24.6936C175.212 24.465 175.364 24.1851 175.212 23.6526H175.209Z" fill="#243456"/>
<path d="M180.169 6.0918H178.181C177.653 6.0918 177.349 6.39568 177.349 6.93125V15.3167C177.349 16.1291 176.795 16.6646 175.939 16.6646H174.959C174.455 16.6646 174.178 16.9444 174.178 17.4529V19.4357C174.178 19.9442 174.455 20.224 174.959 20.224H175.841C176.52 20.224 177.075 19.9713 177.352 19.5139V28.0258C177.352 28.5583 177.653 28.8652 178.184 28.8652H180.172C180.699 28.8652 181.003 28.5613 181.003 28.0258V6.93125C181.003 6.39869 180.702 6.0918 180.172 6.0918H180.169Z" fill="#243456"/>
<path d="M173.724 7.69336H163.984C163.525 7.69336 163.152 8.06919 163.152 8.53281V10.2839C163.152 10.7475 163.525 11.1234 163.984 11.1234H173.724C174.184 11.1234 174.556 10.7475 174.556 10.2839V8.53281C174.556 8.06919 174.184 7.69336 173.724 7.69336Z" fill="#243456"/>
<path d="M35.382 16.461V0.192565C35.382 0.192565 27.2212 -1.01696 17.6924 2.62666C23.6028 4.88625 30.0408 9.01429 35.382 16.461Z" fill="#F56765"/>
<path d="M0 0.192565V16.461C5.34115 9.01429 11.7791 4.88926 17.6896 2.62666C8.16075 -1.01696 0 0.192565 0 0.192565Z" fill="#04B0D6"/>
<path d="M0 16.4613L0.196716 19.1722C1.47239 28.024 8.81945 36.0003 17.6896 36.0003C27.1141 36.0003 34.8128 28.5626 35.3493 19.1842H35.3821V16.4613C30.041 9.01458 23.603 4.88955 17.6926 2.62695C11.7791 4.88955 5.34115 9.01458 0 16.4613Z" fill="#243456"/>
</g>
<defs>
<clipPath id="clip0_46_2005">
<rect width="181" height="36" fill="white"/>
</clipPath>
</defs>
</svg>
